<?xml version="1.0" encoding="UTF-8" standalone="no"?>
<!DOCTYPE svg PUBLIC "-//W3C//DTD SVG 1.1//EN" "http://www.w3.org/Graphics/SVG/1.1/DTD/svg11.dtd">
<svg width="100%" height="100%" viewBox="0 0 128 1024" version="1.1" xmlns="http://www.w3.org/2000/svg" xmlns:xlink="http://www.w3.org/1999/xlink" xml:space="preserve" xmlns:serif="http://www.serif.com/" style="fill-rule:evenodd;clip-rule:evenodd;stroke-linejoin:round;stroke-miterlimit:2;">
    <g transform="matrix(4.55801e-17,-1.23742,0.700127,-0.00534697,-149.189,735.352)">
        <g id="À-PROPOS" serif:id="À PROPOS">
            <g id="A-PROPOS" serif:id="A PROPOS">
                <path d="M-227.522,379.455L-219.344,229.871L-190.673,229.871L-182.594,379.455L-198.654,379.455L-199.836,355.25L-210.083,355.25L-211.068,379.455L-227.522,379.455ZM-208.802,331.393L-201.117,331.393L-204.861,255.295L-205.649,255.295L-208.802,331.393ZM-193.728,225.343L-216.586,217.333L-216.586,213.088L-193.757,213.088L-193.728,225.343Z" style="fill-rule:nonzero;"/>
                <path d="M-157.963,229.871L-135.597,229.871C-128.832,229.871 -124.004,233.731 -121.114,241.451C-118.224,249.171 -116.779,260.461 -116.779,275.321C-116.779,290.18 -118.059,301.383 -120.621,308.929C-123.183,316.475 -127.781,320.248 -134.415,320.248L-141.312,320.248L-141.312,379.455L-157.963,379.455L-157.963,229.871ZM-140.326,293.257C-138.29,293.257 -136.796,292.589 -135.843,291.254C-134.891,289.919 -134.267,288.004 -133.971,285.508C-133.676,283.012 -133.528,279.442 -133.528,274.798C-133.528,268.529 -133.922,264.002 -134.71,261.215C-135.499,258.429 -137.075,257.036 -139.44,257.036L-141.312,257.036L-141.312,293.257L-140.326,293.257Z" style="fill-rule:nonzero;"/>
                <path d="M-113.232,229.871L-87.221,229.871C-83.083,229.871 -79.881,231.525 -77.614,234.834C-75.348,238.142 -73.821,242.786 -73.033,248.765C-72.245,254.743 -71.851,262.376 -71.851,271.664C-71.851,280.138 -72.475,286.756 -73.723,291.515C-74.971,296.275 -77.138,299.584 -80.225,301.441C-77.664,302.37 -75.808,304.634 -74.659,308.233C-73.509,311.832 -72.934,316.707 -72.934,322.86L-73.132,379.455L-89.684,379.455L-89.684,320.945C-89.684,316.765 -90.144,314.095 -91.063,312.934C-91.983,311.774 -93.658,311.193 -96.088,311.193L-96.088,379.455L-113.232,379.455L-113.232,229.871ZM-91.95,285.247C-89.585,285.247 -88.403,280.719 -88.403,271.664C-88.403,267.717 -88.502,264.756 -88.699,262.783C-88.896,260.809 -89.257,259.445 -89.782,258.69C-90.308,257.936 -91.063,257.559 -92.049,257.559L-95.99,257.559L-95.99,285.247L-91.95,285.247Z" style="fill-rule:nonzero;"/>
                <path d="M-47.81,380.848C-54.641,380.848 -59.83,377.162 -63.377,369.79C-66.924,362.419 -68.698,352.057 -68.698,338.707L-68.698,267.484C-68.698,254.598 -66.924,244.876 -63.377,238.316C-59.83,231.757 -54.641,228.478 -47.81,228.478C-40.979,228.478 -35.79,231.757 -32.243,238.316C-28.696,244.876 -26.923,254.598 -26.923,267.484L-26.923,338.707C-26.923,352.173 -28.696,362.564 -32.243,369.877C-35.79,377.191 -40.979,380.848 -47.81,380.848ZM-47.81,353.334C-46.3,353.334 -45.281,352.173 -44.756,349.852C-44.231,347.53 -43.968,344.279 -43.968,340.1L-43.968,266.962C-43.968,263.711 -44.214,261.07 -44.707,259.039C-45.199,257.007 -46.201,255.991 -47.712,255.991C-50.536,255.991 -51.948,259.764 -51.948,267.31L-51.948,340.274C-51.948,344.569 -51.653,347.82 -51.062,350.026C-50.47,352.232 -49.387,353.334 -47.81,353.334Z" style="fill-rule:nonzero;"/>
                <path d="M-21.898,229.871L0.468,229.871C7.233,229.871 12.061,233.731 14.951,241.451C17.841,249.171 19.286,260.461 19.286,275.321C19.286,290.18 18.005,301.383 15.444,308.929C12.882,316.475 8.284,320.248 1.65,320.248L-5.247,320.248L-5.247,379.455L-21.898,379.455L-21.898,229.871ZM-4.262,293.257C-2.225,293.257 -0.731,292.589 0.221,291.254C1.174,289.919 1.798,288.004 2.093,285.508C2.389,283.012 2.537,279.442 2.537,274.798C2.537,268.529 2.143,264.002 1.354,261.215C0.566,258.429 -1.01,257.036 -3.375,257.036L-5.247,257.036L-5.247,293.257L-4.262,293.257Z" style="fill-rule:nonzero;"/>
                <path d="M43.031,380.848C36.2,380.848 31.011,377.162 27.464,369.79C23.917,362.419 22.143,352.057 22.143,338.707L22.143,267.484C22.143,254.598 23.917,244.876 27.464,238.316C31.011,231.757 36.2,228.478 43.031,228.478C49.862,228.478 55.051,231.757 58.598,238.316C62.145,244.876 63.918,254.598 63.918,267.484L63.918,338.707C63.918,352.173 62.145,362.564 58.598,369.877C55.051,377.191 49.862,380.848 43.031,380.848ZM43.031,353.334C44.542,353.334 45.56,352.173 46.085,349.852C46.611,347.53 46.873,344.279 46.873,340.1L46.873,266.962C46.873,263.711 46.627,261.07 46.134,259.039C45.642,257.007 44.64,255.991 43.129,255.991C40.305,255.991 38.893,259.764 38.893,267.31L38.893,340.274C38.893,344.569 39.188,347.82 39.78,350.026C40.371,352.232 41.454,353.334 43.031,353.334Z" style="fill-rule:nonzero;"/>
                <path d="M89.043,380.848C81.358,380.848 75.807,377.482 72.392,370.748C68.976,364.015 67.268,353.16 67.268,338.184L67.268,323.557L83.919,323.557L83.919,342.19C83.919,349.619 85.266,353.334 87.959,353.334C89.47,353.334 90.521,352.551 91.112,350.984C91.703,349.416 91.998,346.775 91.998,343.06C91.998,338.184 91.67,334.15 91.013,330.958C90.356,327.765 89.519,325.095 88.501,322.947C87.483,320.8 85.66,317.462 83.033,312.934L75.742,300.048C70.093,290.297 67.268,279.5 67.268,267.659C67.268,254.888 68.927,245.166 72.244,238.491C75.561,231.815 80.405,228.478 86.777,228.478C94.396,228.478 99.881,232.047 103.23,239.187C106.58,246.327 108.255,257.501 108.255,272.709L91.013,272.709L90.915,262.434C90.915,260.461 90.603,258.894 89.979,257.733C89.355,256.572 88.484,255.991 87.368,255.991C86.054,255.991 85.069,256.63 84.412,257.907C83.755,259.184 83.427,260.925 83.427,263.131C83.427,268.007 85.003,273.057 88.156,278.281L98.009,294.998C100.307,298.945 102.212,302.689 103.723,306.23C105.234,309.771 106.449,313.95 107.369,318.768C108.288,323.586 108.748,329.303 108.748,335.921C108.748,350.664 107.221,361.838 104.166,369.442C101.112,377.046 96.071,380.848 89.043,380.848Z" style="fill-rule:nonzero;"/>
            </g>
        </g>
    </g>
</svg>
