<?xml version="1.0" encoding="UTF-8" standalone="no"?>
<!DOCTYPE svg PUBLIC "-//W3C//DTD SVG 1.1//EN" "http://www.w3.org/Graphics/SVG/1.1/DTD/svg11.dtd">
<svg width="100%" height="100%" viewBox="0 0 128 1024" version="1.1" xmlns="http://www.w3.org/2000/svg" xmlns:xlink="http://www.w3.org/1999/xlink" xml:space="preserve" xmlns:serif="http://www.serif.com/" style="fill-rule:evenodd;clip-rule:evenodd;stroke-linejoin:round;stroke-miterlimit:2;">
    <g transform="matrix(4.55801e-17,-1.23742,0.700127,-0.00534697,-149.189,735.352)">
        <g id="ABOUT">
            <g id="ABOUT1" serif:id="ABOUT">
                <path d="M-227.522,379.455L-219.344,229.871L-190.673,229.871L-182.594,379.455L-198.654,379.455L-199.836,355.25L-210.083,355.25L-211.068,379.455L-227.522,379.455ZM-208.802,331.393L-201.117,331.393L-204.861,255.295L-205.649,255.295L-208.802,331.393Z" style="fill-rule:nonzero;"/>
                <path d="M-179.244,229.871L-156.288,229.871C-150.113,229.871 -145.63,232.541 -142.839,237.881C-140.047,243.221 -138.651,251.928 -138.651,264.002L-138.651,270.619C-138.651,284.898 -141.542,293.431 -147.322,296.217C-143.775,297.842 -141.279,301.615 -139.834,307.536C-138.389,313.457 -137.666,321.293 -137.666,331.045C-137.666,346.949 -139.013,358.994 -141.706,367.178C-144.399,375.363 -149.259,379.455 -156.288,379.455L-179.244,379.455L-179.244,229.871ZM-159.243,286.117C-157.798,286.117 -156.813,285.159 -156.288,283.244C-155.762,281.328 -155.499,278.629 -155.499,275.147L-155.499,260.171C-155.499,255.295 -156.715,252.857 -159.145,252.857L-162.692,252.857L-162.692,286.117L-159.243,286.117ZM-161.017,353.16C-156.616,353.16 -154.416,349.445 -154.416,342.015L-154.416,323.383C-154.416,318.855 -154.793,315.43 -155.549,313.109C-156.304,310.787 -157.634,309.626 -159.539,309.626L-162.692,309.626L-162.692,352.986L-161.017,353.16Z" style="fill-rule:nonzero;"/>
                <path d="M-113.626,380.848C-120.457,380.848 -125.646,377.162 -129.193,369.79C-132.74,362.419 -134.513,352.057 -134.513,338.707L-134.513,267.484C-134.513,254.598 -132.74,244.876 -129.193,238.316C-125.646,231.757 -120.457,228.478 -113.626,228.478C-106.795,228.478 -101.606,231.757 -98.059,238.316C-94.512,244.876 -92.738,254.598 -92.738,267.484L-92.738,338.707C-92.738,352.173 -94.512,362.564 -98.059,369.877C-101.606,377.191 -106.795,380.848 -113.626,380.848ZM-113.626,353.334C-112.115,353.334 -111.097,352.173 -110.571,349.852C-110.046,347.53 -109.783,344.279 -109.783,340.1L-109.783,266.962C-109.783,263.711 -110.03,261.07 -110.522,259.039C-111.015,257.007 -112.017,255.991 -113.527,255.991C-116.352,255.991 -117.764,259.764 -117.764,267.31L-117.764,340.274C-117.764,344.569 -117.468,347.82 -116.877,350.026C-116.286,352.232 -115.202,353.334 -113.626,353.334Z" style="fill-rule:nonzero;"/>
                <path d="M-68.107,380.848C-75.069,380.848 -80.242,377.365 -83.625,370.4C-87.007,363.434 -88.699,353.102 -88.699,339.403L-88.699,229.871L-72.245,229.871L-72.245,338.184C-72.245,342.944 -71.982,346.659 -71.457,349.329C-70.931,351.999 -69.814,353.334 -68.107,353.334C-66.399,353.334 -65.282,352.028 -64.757,349.416C-64.231,346.804 -63.969,343.06 -63.969,338.184L-63.969,229.871L-47.515,229.871L-47.515,339.403C-47.515,353.102 -49.206,363.434 -52.589,370.4C-55.972,377.365 -61.144,380.848 -68.107,380.848Z" style="fill-rule:nonzero;"/>
                <path d="M-35.495,379.455L-35.495,258.603L-45.544,258.603L-45.544,229.871L-8.498,229.871L-8.498,258.603L-18.548,258.603L-18.548,379.455L-35.495,379.455Z" style="fill-rule:nonzero;"/>
            </g>
        </g>
    </g>
</svg>
