<?xml version="1.0" encoding="UTF-8" standalone="no"?>
<!DOCTYPE svg PUBLIC "-//W3C//DTD SVG 1.1//EN" "http://www.w3.org/Graphics/SVG/1.1/DTD/svg11.dtd">
<svg width="100%" height="100%" viewBox="0 0 128 1024" version="1.1" xmlns="http://www.w3.org/2000/svg" xmlns:xlink="http://www.w3.org/1999/xlink" xml:space="preserve" xmlns:serif="http://www.serif.com/" style="fill-rule:evenodd;clip-rule:evenodd;stroke-linejoin:round;stroke-miterlimit:2;">
    <g transform="matrix(4.55801e-17,-1.23742,0.700127,-0.00534697,-149.189,735.352)">
        <g id="ARTISTS">
            <g id="ARTISTS1" serif:id="ARTISTS">
                <path d="M-227.522,379.455L-219.344,229.871L-190.673,229.871L-182.594,379.455L-198.654,379.455L-199.836,355.25L-210.083,355.25L-211.068,379.455L-227.522,379.455ZM-208.802,331.393L-201.117,331.393L-204.861,255.295L-205.649,255.295L-208.802,331.393Z" style="fill-rule:nonzero;"/>
                <path d="M-179.244,229.871L-153.233,229.871C-149.095,229.871 -145.893,231.525 -143.627,234.834C-141.361,238.142 -139.834,242.786 -139.046,248.765C-138.257,254.743 -137.863,262.376 -137.863,271.664C-137.863,280.138 -138.487,286.756 -139.735,291.515C-140.983,296.275 -143.151,299.584 -146.238,301.441C-143.676,302.37 -141.821,304.634 -140.671,308.233C-139.522,311.832 -138.947,316.707 -138.947,322.86L-139.144,379.455L-155.696,379.455L-155.696,320.945C-155.696,316.765 -156.156,314.095 -157.076,312.934C-157.995,311.774 -159.67,311.193 -162.101,311.193L-162.101,379.455L-179.244,379.455L-179.244,229.871ZM-157.963,285.247C-155.598,285.247 -154.416,280.719 -154.416,271.664C-154.416,267.717 -154.514,264.756 -154.711,262.783C-154.908,260.809 -155.27,259.445 -155.795,258.69C-156.32,257.936 -157.076,257.559 -158.061,257.559L-162.002,257.559L-162.002,285.247L-157.963,285.247Z" style="fill-rule:nonzero;"/>
                <path d="M-126.73,379.455L-126.73,258.603L-136.779,258.603L-136.779,229.871L-99.734,229.871L-99.734,258.603L-109.783,258.603L-109.783,379.455L-126.73,379.455Z" style="fill-rule:nonzero;"/>
                <rect x="-97.566" y="229.871" width="16.355" height="149.584" style="fill-rule:nonzero;"/>
                <path d="M-56.086,380.848C-63.772,380.848 -69.322,377.482 -72.737,370.748C-76.153,364.015 -77.861,353.16 -77.861,338.184L-77.861,323.557L-61.21,323.557L-61.21,342.19C-61.21,349.619 -59.863,353.334 -57.17,353.334C-55.66,353.334 -54.609,352.551 -54.017,350.984C-53.426,349.416 -53.131,346.775 -53.131,343.06C-53.131,338.184 -53.459,334.15 -54.116,330.958C-54.773,327.765 -55.61,325.095 -56.628,322.947C-57.646,320.8 -59.469,317.462 -62.097,312.934L-69.388,300.048C-75.036,290.297 -77.861,279.5 -77.861,267.659C-77.861,254.888 -76.202,245.166 -72.885,238.491C-69.568,231.815 -64.724,228.478 -58.353,228.478C-50.733,228.478 -45.249,232.047 -41.899,239.187C-38.549,246.327 -36.874,257.501 -36.874,272.709L-54.116,272.709L-54.214,262.434C-54.214,260.461 -54.526,258.894 -55.15,257.733C-55.774,256.572 -56.645,255.991 -57.761,255.991C-59.075,255.991 -60.06,256.63 -60.717,257.907C-61.374,259.184 -61.702,260.925 -61.702,263.131C-61.702,268.007 -60.126,273.057 -56.973,278.281L-47.121,294.998C-44.822,298.945 -42.917,302.689 -41.406,306.23C-39.895,309.771 -38.68,313.95 -37.761,318.768C-36.841,323.586 -36.381,329.303 -36.381,335.921C-36.381,350.664 -37.908,361.838 -40.963,369.442C-44.017,377.046 -49.058,380.848 -56.086,380.848Z" style="fill-rule:nonzero;"/>
                <path d="M-25.248,379.455L-25.248,258.603L-35.297,258.603L-35.297,229.871L1.748,229.871L1.748,258.603L-8.301,258.603L-8.301,379.455L-25.248,379.455Z" style="fill-rule:nonzero;"/>
                <path d="M24.804,380.848C17.118,380.848 11.568,377.482 8.153,370.748C4.737,364.015 3.029,353.16 3.029,338.184L3.029,323.557L19.68,323.557L19.68,342.19C19.68,349.619 21.027,353.334 23.72,353.334C25.23,353.334 26.281,352.551 26.873,350.984C27.464,349.416 27.759,346.775 27.759,343.06C27.759,338.184 27.431,334.15 26.774,330.958C26.117,327.765 25.28,325.095 24.262,322.947C23.244,320.8 21.421,317.462 18.793,312.934L11.502,300.048C5.854,290.297 3.029,279.5 3.029,267.659C3.029,254.888 4.688,245.166 8.005,238.491C11.322,231.815 16.166,228.478 22.537,228.478C30.157,228.478 35.641,232.047 38.991,239.187C42.341,246.327 44.016,257.501 44.016,272.709L26.774,272.709L26.676,262.434C26.676,260.461 26.364,258.894 25.74,257.733C25.116,256.572 24.245,255.991 23.129,255.991C21.815,255.991 20.83,256.63 20.173,257.907C19.516,259.184 19.188,260.925 19.188,263.131C19.188,268.007 20.764,273.057 23.917,278.281L33.769,294.998C36.068,298.945 37.973,302.689 39.484,306.23C40.995,309.771 42.21,313.95 43.129,318.768C44.049,323.586 44.509,329.303 44.509,335.921C44.509,350.664 42.982,361.838 39.927,369.442C36.873,377.046 31.832,380.848 24.804,380.848Z" style="fill-rule:nonzero;"/>
            </g>
        </g>
    </g>
</svg>
