<?xml version="1.0" encoding="UTF-8" standalone="no"?>
<!DOCTYPE svg PUBLIC "-//W3C//DTD SVG 1.1//EN" "http://www.w3.org/Graphics/SVG/1.1/DTD/svg11.dtd">
<svg width="100%" height="100%" viewBox="0 0 128 1024" version="1.1" xmlns="http://www.w3.org/2000/svg" xmlns:xlink="http://www.w3.org/1999/xlink" xml:space="preserve" xmlns:serif="http://www.serif.com/" style="fill-rule:evenodd;clip-rule:evenodd;stroke-linejoin:round;stroke-miterlimit:2;">
    <g transform="matrix(4.55801e-17,-1.23742,0.700127,-0.00534697,-149.189,735.352)">
        <g id="ARTWORKS">
            <g id="ARTWORKS1" serif:id="ARTWORKS">
                <path d="M-227.522,379.455L-219.344,229.871L-190.673,229.871L-182.594,379.455L-198.654,379.455L-199.836,355.25L-210.083,355.25L-211.068,379.455L-227.522,379.455ZM-208.802,331.393L-201.117,331.393L-204.861,255.295L-205.649,255.295L-208.802,331.393Z" style="fill-rule:nonzero;"/>
                <path d="M-179.244,229.871L-153.233,229.871C-149.095,229.871 -145.893,231.525 -143.627,234.834C-141.361,238.142 -139.834,242.786 -139.046,248.765C-138.257,254.743 -137.863,262.376 -137.863,271.664C-137.863,280.138 -138.487,286.756 -139.735,291.515C-140.983,296.275 -143.151,299.584 -146.238,301.441C-143.676,302.37 -141.821,304.634 -140.671,308.233C-139.522,311.832 -138.947,316.707 -138.947,322.86L-139.144,379.455L-155.696,379.455L-155.696,320.945C-155.696,316.765 -156.156,314.095 -157.076,312.934C-157.995,311.774 -159.67,311.193 -162.101,311.193L-162.101,379.455L-179.244,379.455L-179.244,229.871ZM-157.963,285.247C-155.598,285.247 -154.416,280.719 -154.416,271.664C-154.416,267.717 -154.514,264.756 -154.711,262.783C-154.908,260.809 -155.27,259.445 -155.795,258.69C-156.32,257.936 -157.076,257.559 -158.061,257.559L-162.002,257.559L-162.002,285.247L-157.963,285.247Z" style="fill-rule:nonzero;"/>
                <path d="M-126.73,379.455L-126.73,258.603L-136.779,258.603L-136.779,229.871L-99.734,229.871L-99.734,258.603L-109.783,258.603L-109.783,379.455L-126.73,379.455Z" style="fill-rule:nonzero;"/>
                <path d="M-90.177,379.455L-99.241,229.871L-82.689,229.871L-77.959,324.253L-73.23,229.871L-57.466,229.871L-52.934,324.253L-48.401,229.871L-31.652,229.871L-40.913,379.455L-61.21,379.455L-65.446,307.362L-69.486,379.455L-90.177,379.455Z" style="fill-rule:nonzero;"/>
                <path d="M-11.159,380.848C-17.99,380.848 -23.179,377.162 -26.726,369.79C-30.273,362.419 -32.046,352.057 -32.046,338.707L-32.046,267.484C-32.046,254.598 -30.273,244.876 -26.726,238.316C-23.179,231.757 -17.99,228.478 -11.159,228.478C-4.327,228.478 0.862,231.757 4.409,238.316C7.956,244.876 9.729,254.598 9.729,267.484L9.729,338.707C9.729,352.173 7.956,362.564 4.409,369.877C0.862,377.191 -4.327,380.848 -11.159,380.848ZM-11.159,353.334C-9.648,353.334 -8.63,352.173 -8.104,349.852C-7.579,347.53 -7.316,344.279 -7.316,340.1L-7.316,266.962C-7.316,263.711 -7.562,261.07 -8.055,259.039C-8.548,257.007 -9.549,255.991 -11.06,255.991C-13.884,255.991 -15.297,259.764 -15.297,267.31L-15.297,340.274C-15.297,344.569 -15.001,347.82 -14.41,350.026C-13.819,352.232 -12.735,353.334 -11.159,353.334Z" style="fill-rule:nonzero;"/>
                <path d="M12.783,229.871L38.794,229.871C42.932,229.871 46.134,231.525 48.401,234.834C50.667,238.142 52.194,242.786 52.982,248.765C53.77,254.743 54.164,262.376 54.164,271.664C54.164,280.138 53.54,286.756 52.292,291.515C51.044,296.275 48.877,299.584 45.79,301.441C48.351,302.37 50.207,304.634 51.356,308.233C52.506,311.832 53.081,316.707 53.081,322.86L52.884,379.455L36.331,379.455L36.331,320.945C36.331,316.765 35.871,314.095 34.952,312.934C34.032,311.774 32.357,311.193 29.927,311.193L29.927,379.455L12.783,379.455L12.783,229.871ZM34.065,285.247C36.43,285.247 37.612,280.719 37.612,271.664C37.612,267.717 37.513,264.756 37.316,262.783C37.119,260.809 36.758,259.445 36.233,258.69C35.707,257.936 34.952,257.559 33.966,257.559L30.025,257.559L30.025,285.247L34.065,285.247Z" style="fill-rule:nonzero;"/>
                <path d="M57.022,379.455L57.022,229.871L73.771,229.871L73.771,289.774L81.653,229.871L98.698,229.871L89.24,298.307L100.669,379.455L83.131,379.455L73.87,307.014L73.87,379.455L57.022,379.455Z" style="fill-rule:nonzero;"/>
                <path d="M120.867,380.848C113.182,380.848 107.631,377.482 104.216,370.748C100.8,364.015 99.092,353.16 99.092,338.184L99.092,323.557L115.743,323.557L115.743,342.19C115.743,349.619 117.09,353.334 119.783,353.334C121.294,353.334 122.344,352.551 122.936,350.984C123.527,349.416 123.822,346.775 123.822,343.06C123.822,338.184 123.494,334.15 122.837,330.958C122.18,327.765 121.343,325.095 120.325,322.947C119.307,320.8 117.484,317.462 114.856,312.934L107.566,300.048C101.917,290.297 99.092,279.5 99.092,267.659C99.092,254.888 100.751,245.166 104.068,238.491C107.385,231.815 112.229,228.478 118.6,228.478C126.22,228.478 131.704,232.047 135.054,239.187C138.404,246.327 140.079,257.501 140.079,272.709L122.837,272.709L122.739,262.434C122.739,260.461 122.427,258.894 121.803,257.733C121.179,256.572 120.308,255.991 119.192,255.991C117.878,255.991 116.893,256.63 116.236,257.907C115.579,259.184 115.251,260.925 115.251,263.131C115.251,268.007 116.827,273.057 119.98,278.281L129.832,294.998C132.131,298.945 134.036,302.689 135.547,306.23C137.058,309.771 138.273,313.95 139.192,318.768C140.112,323.586 140.572,329.303 140.572,335.921C140.572,350.664 139.045,361.838 135.99,369.442C132.936,377.046 127.895,380.848 120.867,380.848Z" style="fill-rule:nonzero;"/>
            </g>
        </g>
    </g>
</svg>
