<?xml version="1.0" encoding="UTF-8" standalone="no"?>
<!DOCTYPE svg PUBLIC "-//W3C//DTD SVG 1.1//EN" "http://www.w3.org/Graphics/SVG/1.1/DTD/svg11.dtd">
<svg width="100%" height="100%" viewBox="0 0 128 1024" version="1.1" xmlns="http://www.w3.org/2000/svg" xmlns:xlink="http://www.w3.org/1999/xlink" xml:space="preserve" xmlns:serif="http://www.serif.com/" style="fill-rule:evenodd;clip-rule:evenodd;stroke-linejoin:round;stroke-miterlimit:2;">
    <g transform="matrix(4.55801e-17,-1.23742,0.700127,-0.00534697,-149.189,735.352)">
        <g id="COORDONNÉES">
            <g id="COORDONNÉES1" serif:id="COORDONNÉES">
                <path d="M-205.551,380.848C-211.725,380.848 -216.668,377.423 -220.379,370.574C-224.09,363.725 -225.946,354.321 -225.946,342.364L-225.946,273.405C-225.946,258.545 -224.271,247.343 -220.921,239.797C-217.571,232.251 -212.316,228.478 -205.157,228.478C-198.917,228.478 -193.892,231.496 -190.082,237.533C-186.272,243.57 -184.368,252.276 -184.368,263.653L-184.368,289.426L-201.216,289.426L-201.216,267.31C-201.216,263.015 -201.511,260.055 -202.102,258.429C-202.693,256.804 -203.712,255.991 -205.157,255.991C-206.667,255.991 -207.702,256.92 -208.26,258.778C-208.819,260.635 -209.098,263.363 -209.098,266.962L-209.098,342.015C-209.098,345.963 -208.769,348.836 -208.112,350.635C-207.456,352.435 -206.47,353.334 -205.157,353.334C-202.529,353.334 -201.216,349.561 -201.216,342.015L-201.216,315.024L-184.171,315.024L-184.171,343.234C-184.171,368.31 -191.297,380.848 -205.551,380.848Z" style="fill-rule:nonzero;"/>
                <path d="M-160.13,380.848C-166.961,380.848 -172.15,377.162 -175.697,369.79C-179.244,362.419 -181.018,352.057 -181.018,338.707L-181.018,267.484C-181.018,254.598 -179.244,244.876 -175.697,238.316C-172.15,231.757 -166.961,228.478 -160.13,228.478C-153.299,228.478 -148.11,231.757 -144.563,238.316C-141.016,244.876 -139.243,254.598 -139.243,267.484L-139.243,338.707C-139.243,352.173 -141.016,362.564 -144.563,369.877C-148.11,377.191 -153.299,380.848 -160.13,380.848ZM-160.13,353.334C-158.619,353.334 -157.601,352.173 -157.076,349.852C-156.55,347.53 -156.288,344.279 -156.288,340.1L-156.288,266.962C-156.288,263.711 -156.534,261.07 -157.027,259.039C-157.519,257.007 -158.521,255.991 -160.032,255.991C-162.856,255.991 -164.268,259.764 -164.268,267.31L-164.268,340.274C-164.268,344.569 -163.973,347.82 -163.382,350.026C-162.79,352.232 -161.707,353.334 -160.13,353.334Z" style="fill-rule:nonzero;"/>
                <path d="M-114.02,380.848C-120.851,380.848 -126.04,377.162 -129.587,369.79C-133.134,362.419 -134.907,352.057 -134.907,338.707L-134.907,267.484C-134.907,254.598 -133.134,244.876 -129.587,238.316C-126.04,231.757 -120.851,228.478 -114.02,228.478C-107.189,228.478 -102,231.757 -98.453,238.316C-94.906,244.876 -93.132,254.598 -93.132,267.484L-93.132,338.707C-93.132,352.173 -94.906,362.564 -98.453,369.877C-102,377.191 -107.189,380.848 -114.02,380.848ZM-114.02,353.334C-112.509,353.334 -111.491,352.173 -110.966,349.852C-110.44,347.53 -110.177,344.279 -110.177,340.1L-110.177,266.962C-110.177,263.711 -110.424,261.07 -110.916,259.039C-111.409,257.007 -112.411,255.991 -113.921,255.991C-116.746,255.991 -118.158,259.764 -118.158,267.31L-118.158,340.274C-118.158,344.569 -117.862,347.82 -117.271,350.026C-116.68,352.232 -115.596,353.334 -114.02,353.334Z" style="fill-rule:nonzero;"/>
                <path d="M-88.108,229.871L-62.097,229.871C-57.958,229.871 -54.756,231.525 -52.49,234.834C-50.224,238.142 -48.697,242.786 -47.909,248.765C-47.121,254.743 -46.726,262.376 -46.726,271.664C-46.726,280.138 -47.35,286.756 -48.598,291.515C-49.846,296.275 -52.014,299.584 -55.101,301.441C-52.54,302.37 -50.684,304.634 -49.534,308.233C-48.385,311.832 -47.81,316.707 -47.81,322.86L-48.007,379.455L-64.56,379.455L-64.56,320.945C-64.56,316.765 -65.02,314.095 -65.939,312.934C-66.859,311.774 -68.534,311.193 -70.964,311.193L-70.964,379.455L-88.108,379.455L-88.108,229.871ZM-66.826,285.247C-64.461,285.247 -63.279,280.719 -63.279,271.664C-63.279,267.717 -63.377,264.756 -63.574,262.783C-63.772,260.809 -64.133,259.445 -64.658,258.69C-65.184,257.936 -65.939,257.559 -66.924,257.559L-70.865,257.559L-70.865,285.247L-66.826,285.247Z" style="fill-rule:nonzero;"/>
                <path d="M-42.884,229.871L-19.533,229.871C-13.49,229.871 -8.958,232.831 -5.937,238.752C-2.915,244.672 -1.372,253.437 -1.306,265.047L-1.109,335.05C-1.043,349.794 -2.488,360.88 -5.444,368.31C-8.4,375.74 -13.293,379.455 -20.124,379.455L-42.884,379.455L-42.884,229.871ZM-22.883,352.986C-19.796,352.986 -18.252,350.316 -18.252,344.976L-18.252,267.833C-18.252,264.466 -18.4,261.941 -18.696,260.258C-18.991,258.574 -19.533,257.443 -20.321,256.862C-21.11,256.282 -22.325,255.991 -23.967,255.991L-25.839,255.991L-25.839,352.986L-22.883,352.986Z" style="fill-rule:nonzero;"/>
                <path d="M24.114,380.848C17.283,380.848 12.094,377.162 8.547,369.79C5,362.419 3.226,352.057 3.226,338.707L3.226,267.484C3.226,254.598 5,244.876 8.547,238.316C12.094,231.757 17.283,228.478 24.114,228.478C30.945,228.478 36.134,231.757 39.681,238.316C43.228,244.876 45.001,254.598 45.001,267.484L45.001,338.707C45.001,352.173 43.228,362.564 39.681,369.877C36.134,377.191 30.945,380.848 24.114,380.848ZM24.114,353.334C25.625,353.334 26.643,352.173 27.168,349.852C27.694,347.53 27.956,344.279 27.956,340.1L27.956,266.962C27.956,263.711 27.71,261.07 27.217,259.039C26.725,257.007 25.723,255.991 24.212,255.991C21.388,255.991 19.976,259.764 19.976,267.31L19.976,340.274C19.976,344.569 20.271,347.82 20.862,350.026C21.454,352.232 22.537,353.334 24.114,353.334Z" style="fill-rule:nonzero;"/>
                <path d="M50.026,379.455L50.026,229.871L67.465,229.871L75.249,301.441L75.249,229.871L91.604,229.871L91.604,379.455L75.052,379.455L66.579,304.576L66.579,379.455L50.026,379.455Z" style="fill-rule:nonzero;"/>
                <path d="M97.319,379.455L97.319,229.871L114.758,229.871L122.542,301.441L122.542,229.871L138.897,229.871L138.897,379.455L122.344,379.455L113.871,304.576L113.871,379.455L97.319,379.455Z" style="fill-rule:nonzero;"/>
                <path d="M144.611,379.455L144.611,229.871L178.504,229.871L178.504,258.778L161.854,258.778L161.854,287.859L177.815,287.859L177.815,316.069L161.854,316.069L161.854,350.374L179.588,350.374L179.588,379.455L144.611,379.455ZM150.72,225.343L150.72,213.088L173.578,213.088L173.578,217.333L150.72,225.343Z" style="fill-rule:nonzero;"/>
                <path d="M183.431,379.455L183.431,229.871L217.324,229.871L217.324,258.778L200.673,258.778L200.673,287.859L216.634,287.859L216.634,316.069L200.673,316.069L200.673,350.374L218.408,350.374L218.408,379.455L183.431,379.455Z" style="fill-rule:nonzero;"/>
                <path d="M242.349,380.848C234.664,380.848 229.114,377.482 225.698,370.748C222.283,364.015 220.575,353.16 220.575,338.184L220.575,323.557L237.226,323.557L237.226,342.19C237.226,349.619 238.573,353.334 241.266,353.334C242.776,353.334 243.827,352.551 244.418,350.984C245.01,349.416 245.305,346.775 245.305,343.06C245.305,338.184 244.977,334.15 244.32,330.958C243.663,327.765 242.826,325.095 241.808,322.947C240.789,320.8 238.967,317.462 236.339,312.934L229.048,300.048C223.4,290.297 220.575,279.5 220.575,267.659C220.575,254.888 222.234,245.166 225.551,238.491C228.868,231.815 233.712,228.478 240.083,228.478C247.703,228.478 253.187,232.047 256.537,239.187C259.887,246.327 261.562,257.501 261.562,272.709L244.32,272.709L244.221,262.434C244.221,260.461 243.909,258.894 243.285,257.733C242.661,256.572 241.791,255.991 240.674,255.991C239.361,255.991 238.376,256.63 237.719,257.907C237.062,259.184 236.733,260.925 236.733,263.131C236.733,268.007 238.31,273.057 241.463,278.281L251.315,294.998C253.614,298.945 255.519,302.689 257.03,306.23C258.541,309.771 259.756,313.95 260.675,318.768C261.595,323.586 262.055,329.303 262.055,335.921C262.055,350.664 260.528,361.838 257.473,369.442C254.419,377.046 249.378,380.848 242.349,380.848Z" style="fill-rule:nonzero;"/>
            </g>
        </g>
    </g>
</svg>
