<?xml version="1.0" encoding="UTF-8" standalone="no"?>
<!DOCTYPE svg PUBLIC "-//W3C//DTD SVG 1.1//EN" "http://www.w3.org/Graphics/SVG/1.1/DTD/svg11.dtd">
<svg width="100%" height="100%" viewBox="0 0 128 1024" version="1.1" xmlns="http://www.w3.org/2000/svg" xmlns:xlink="http://www.w3.org/1999/xlink" xml:space="preserve" xmlns:serif="http://www.serif.com/" style="fill-rule:evenodd;clip-rule:evenodd;stroke-linejoin:round;stroke-miterlimit:2;">
    <g id="ENGLISH" transform="matrix(4.55801e-17,-0.958242,0.700127,-0.00414061,-149.189,799.008)">
        <path d="M-224.165,379.455L-224.165,229.871L-180.398,229.871L-180.398,258.778L-201.9,258.778L-201.9,287.859L-181.288,287.859L-181.288,316.069L-201.9,316.069L-201.9,350.374L-178.998,350.374L-178.998,379.455L-224.165,379.455Z" style="fill-rule:nonzero;"/>
        <path d="M-174.036,379.455L-174.036,229.871L-151.516,229.871L-141.465,301.441L-141.465,229.871L-120.344,229.871L-120.344,379.455L-141.719,379.455L-152.661,304.576L-152.661,379.455L-174.036,379.455Z" style="fill-rule:nonzero;"/>
        <path d="M-90.445,380.848C-98.333,380.848 -104.207,377.046 -108.066,369.442C-111.926,361.838 -113.855,350.316 -113.855,334.876L-113.855,270.445C-113.855,256.63 -111.608,246.182 -107.112,239.1C-102.617,232.018 -95.916,228.478 -87.01,228.478C-79.8,228.478 -74.202,230.451 -70.215,234.398C-66.228,238.345 -63.472,244.092 -61.945,251.638C-60.418,259.184 -59.655,268.878 -59.655,280.719L-81.03,280.719L-81.03,267.31C-81.03,263.711 -81.39,260.925 -82.111,258.952C-82.832,256.978 -84.126,255.991 -85.992,255.991C-90.148,255.991 -92.226,259.706 -92.226,267.136L-92.226,339.578C-92.226,344.105 -91.802,347.53 -90.954,349.852C-90.106,352.173 -88.621,353.334 -86.501,353.334C-84.38,353.334 -82.896,352.173 -82.048,349.852C-81.199,347.53 -80.775,344.105 -80.775,339.578L-80.775,318.159L-86.628,318.159L-86.628,292.386L-59.909,292.386L-59.909,379.455L-68.688,379.455L-72.378,366.917C-76.28,376.204 -82.302,380.848 -90.445,380.848Z" style="fill-rule:nonzero;"/>
        <path d="M-53.548,379.455L-53.548,229.871L-31.664,229.871L-31.664,354.031L-9.144,354.031L-9.144,379.455L-53.548,379.455Z" style="fill-rule:nonzero;"/>
        <rect x="-6.345" y="229.871" width="21.12" height="149.584" style="fill-rule:nonzero;"/>
        <path d="M47.22,380.848C37.296,380.848 30.128,377.482 25.717,370.748C21.307,364.015 19.101,353.16 19.101,338.184L19.101,323.557L40.604,323.557L40.604,342.19C40.604,349.619 42.342,353.334 45.82,353.334C47.771,353.334 49.128,352.551 49.891,350.984C50.655,349.416 51.037,346.775 51.037,343.06C51.037,338.184 50.612,334.15 49.764,330.958C48.916,327.765 47.835,325.095 46.52,322.947C45.205,320.8 42.851,317.462 39.458,312.934L30.043,300.048C22.749,290.297 19.101,279.5 19.101,267.659C19.101,254.888 21.243,245.166 25.527,238.491C29.81,231.815 36.066,228.478 44.293,228.478C54.133,228.478 61.215,232.047 65.541,239.187C69.867,246.327 72.03,257.501 72.03,272.709L49.764,272.709L49.637,262.434C49.637,260.461 49.234,258.894 48.428,257.733C47.623,256.572 46.499,255.991 45.057,255.991C43.36,255.991 42.088,256.63 41.24,257.907C40.392,259.184 39.967,260.925 39.967,263.131C39.967,268.007 42.003,273.057 46.075,278.281L58.798,294.998C61.766,298.945 64.226,302.689 66.177,306.23C68.128,309.771 69.697,313.95 70.885,318.768C72.072,323.586 72.666,329.303 72.666,335.921C72.666,350.664 70.694,361.838 66.75,369.442C62.805,377.046 56.295,380.848 47.22,380.848Z" style="fill-rule:nonzero;"/>
        <path d="M77.628,379.455L77.628,229.871L99.385,229.871L99.385,283.331L109.69,283.331L109.69,229.871L131.447,229.871L131.447,379.455L109.69,379.455L109.69,311.541L99.385,311.541L99.385,379.455L77.628,379.455Z" style="fill-rule:nonzero;"/>
    </g>
</svg>
