<?xml version="1.0" encoding="UTF-8" standalone="no"?>
<!DOCTYPE svg PUBLIC "-//W3C//DTD SVG 1.1//EN" "http://www.w3.org/Graphics/SVG/1.1/DTD/svg11.dtd">
<svg width="100%" height="100%" viewBox="0 0 128 1024" version="1.1" xmlns="http://www.w3.org/2000/svg" xmlns:xlink="http://www.w3.org/1999/xlink" xml:space="preserve" xmlns:serif="http://www.serif.com/" style="fill-rule:evenodd;clip-rule:evenodd;stroke-linejoin:round;stroke-miterlimit:2;">
    <g transform="matrix(4.55801e-17,-1.23742,0.700127,-0.00534697,-149.189,735.352)">
        <g id="ESPACE-ST-JEAN" serif:id="ESPACE ST-JEAN">
            <g id="ESPACE-ST-JEAN1" serif:id="ESPACE ST-JEAN">
                <path d="M-225.256,379.455L-225.256,229.871L-191.363,229.871L-191.363,258.778L-208.014,258.778L-208.014,287.859L-192.053,287.859L-192.053,316.069L-208.014,316.069L-208.014,350.374L-190.279,350.374L-190.279,379.455L-225.256,379.455Z" style="fill-rule:nonzero;"/>
                <path d="M-166.337,380.848C-174.022,380.848 -179.573,377.482 -182.988,370.748C-186.404,364.015 -188.112,353.16 -188.112,338.184L-188.112,323.557L-171.461,323.557L-171.461,342.19C-171.461,349.619 -170.114,353.334 -167.421,353.334C-165.91,353.334 -164.859,352.551 -164.268,350.984C-163.677,349.416 -163.382,346.775 -163.382,343.06C-163.382,338.184 -163.71,334.15 -164.367,330.958C-165.024,327.765 -165.861,325.095 -166.879,322.947C-167.897,320.8 -169.72,317.462 -172.347,312.934L-179.638,300.048C-185.287,290.297 -188.112,279.5 -188.112,267.659C-188.112,254.888 -186.453,245.166 -183.136,238.491C-179.819,231.815 -174.975,228.478 -168.603,228.478C-160.984,228.478 -155.499,232.047 -152.15,239.187C-148.8,246.327 -147.125,257.501 -147.125,272.709L-164.367,272.709L-164.465,262.434C-164.465,260.461 -164.777,258.894 -165.401,257.733C-166.025,256.572 -166.896,255.991 -168.012,255.991C-169.326,255.991 -170.311,256.63 -170.968,257.907C-171.625,259.184 -171.953,260.925 -171.953,263.131C-171.953,268.007 -170.377,273.057 -167.224,278.281L-157.371,294.998C-155.072,298.945 -153.168,302.689 -151.657,306.23C-150.146,309.771 -148.931,313.95 -148.011,318.768C-147.092,323.586 -146.632,329.303 -146.632,335.921C-146.632,350.664 -148.159,361.838 -151.214,369.442C-154.268,377.046 -159.309,380.848 -166.337,380.848Z" style="fill-rule:nonzero;"/>
                <path d="M-142.79,229.871L-120.424,229.871C-113.659,229.871 -108.831,233.731 -105.941,241.451C-103.051,249.171 -101.606,260.461 -101.606,275.321C-101.606,290.18 -102.886,301.383 -105.448,308.929C-108.01,316.475 -112.608,320.248 -119.242,320.248L-126.139,320.248L-126.139,379.455L-142.79,379.455L-142.79,229.871ZM-125.153,293.257C-123.117,293.257 -121.623,292.589 -120.67,291.254C-119.718,289.919 -119.094,288.004 -118.798,285.508C-118.503,283.012 -118.355,279.442 -118.355,274.798C-118.355,268.529 -118.749,264.002 -119.537,261.215C-120.326,258.429 -121.902,257.036 -124.267,257.036L-126.139,257.036L-126.139,293.257L-125.153,293.257Z" style="fill-rule:nonzero;"/>
                <path d="M-102.295,379.455L-94.118,229.871L-65.446,229.871L-57.367,379.455L-73.427,379.455L-74.609,355.25L-84.856,355.25L-85.841,379.455L-102.295,379.455ZM-83.575,331.393L-75.89,331.393L-79.634,255.295L-80.422,255.295L-83.575,331.393Z" style="fill-rule:nonzero;"/>
                <path d="M-34.312,380.848C-40.487,380.848 -45.429,377.423 -49.14,370.574C-52.852,363.725 -54.707,354.321 -54.707,342.364L-54.707,273.405C-54.707,258.545 -53.032,247.343 -49.682,239.797C-46.332,232.251 -41.078,228.478 -33.918,228.478C-27.678,228.478 -22.653,231.496 -18.844,237.533C-15.034,243.57 -13.129,252.276 -13.129,263.653L-13.129,289.426L-29.977,289.426L-29.977,267.31C-29.977,263.015 -30.273,260.055 -30.864,258.429C-31.455,256.804 -32.473,255.991 -33.918,255.991C-35.429,255.991 -36.463,256.92 -37.022,258.778C-37.58,260.635 -37.859,263.363 -37.859,266.962L-37.859,342.015C-37.859,345.963 -37.531,348.836 -36.874,350.635C-36.217,352.435 -35.232,353.334 -33.918,353.334C-31.291,353.334 -29.977,349.561 -29.977,342.015L-29.977,315.024L-12.932,315.024L-12.932,343.234C-12.932,368.31 -20.059,380.848 -34.312,380.848Z" style="fill-rule:nonzero;"/>
                <path d="M-9.089,379.455L-9.089,229.871L24.804,229.871L24.804,258.778L8.153,258.778L8.153,287.859L24.114,287.859L24.114,316.069L8.153,316.069L8.153,350.374L25.887,350.374L25.887,379.455L-9.089,379.455Z" style="fill-rule:nonzero;"/>
                <path d="M71.111,380.848C63.426,380.848 57.876,377.482 54.46,370.748C51.044,364.015 49.337,353.16 49.337,338.184L49.337,323.557L65.987,323.557L65.987,342.19C65.987,349.619 67.334,353.334 70.027,353.334C71.538,353.334 72.589,352.551 73.18,350.984C73.771,349.416 74.067,346.775 74.067,343.06C74.067,338.184 73.738,334.15 73.081,330.958C72.425,327.765 71.587,325.095 70.569,322.947C69.551,320.8 67.728,317.462 65.101,312.934L57.81,300.048C52.161,290.297 49.337,279.5 49.337,267.659C49.337,254.888 50.995,245.166 54.312,238.491C57.629,231.815 62.473,228.478 68.845,228.478C76.464,228.478 81.949,232.047 85.299,239.187C88.649,246.327 90.323,257.501 90.323,272.709L73.081,272.709L72.983,262.434C72.983,260.461 72.671,258.894 72.047,257.733C71.423,256.572 70.553,255.991 69.436,255.991C68.122,255.991 67.137,256.63 66.48,257.907C65.823,259.184 65.495,260.925 65.495,263.131C65.495,268.007 67.071,273.057 70.224,278.281L80.077,294.998C82.376,298.945 84.281,302.689 85.791,306.23C87.302,309.771 88.517,313.95 89.437,318.768C90.356,323.586 90.816,329.303 90.816,335.921C90.816,350.664 89.289,361.838 86.235,369.442C83.18,377.046 78.139,380.848 71.111,380.848Z" style="fill-rule:nonzero;"/>
                <path d="M101.95,379.455L101.95,258.603L91.9,258.603L91.9,229.871L128.946,229.871L128.946,258.603L118.896,258.603L118.896,379.455L101.95,379.455Z" style="fill-rule:nonzero;"/>
                <rect x="127.074" y="316.417" width="24.829" height="19.678" style="fill-rule:nonzero;"/>
                <path d="M179.588,380.848C175.713,380.848 172.199,379.513 169.046,376.843C165.893,374.173 163.414,370.255 161.607,365.089C159.801,359.923 158.898,353.683 158.898,346.369L158.898,308.929L175.549,308.929L175.549,344.628C175.549,347.298 175.861,349.416 176.485,350.984C177.109,352.551 178.077,353.334 179.391,353.334C180.639,353.334 181.575,352.609 182.199,351.158C182.823,349.707 183.135,347.646 183.135,344.976L183.135,229.871L200.18,229.871L200.18,342.015C200.18,349.794 199.31,356.614 197.569,362.477C195.829,368.339 193.398,372.867 190.278,376.059C187.158,379.252 183.595,380.848 179.588,380.848Z" style="fill-rule:nonzero;"/>
                <path d="M203.924,379.455L203.924,229.871L237.817,229.871L237.817,258.778L221.166,258.778L221.166,287.859L237.128,287.859L237.128,316.069L221.166,316.069L221.166,350.374L238.901,350.374L238.901,379.455L203.924,379.455Z" style="fill-rule:nonzero;"/>
                <path d="M241.463,379.455L249.64,229.871L278.311,229.871L286.391,379.455L270.331,379.455L269.149,355.25L258.902,355.25L257.917,379.455L241.463,379.455ZM260.183,331.393L267.868,331.393L264.124,255.295L263.336,255.295L260.183,331.393Z" style="fill-rule:nonzero;"/>
                <path d="M289.741,379.455L289.741,229.871L307.18,229.871L314.963,301.441L314.963,229.871L331.319,229.871L331.319,379.455L314.766,379.455L306.293,304.576L306.293,379.455L289.741,379.455Z" style="fill-rule:nonzero;"/>
            </g>
        </g>
    </g>
</svg>
