<?xml version="1.0" encoding="UTF-8" standalone="no"?>
<!DOCTYPE svg PUBLIC "-//W3C//DTD SVG 1.1//EN" "http://www.w3.org/Graphics/SVG/1.1/DTD/svg11.dtd">
<svg width="100%" height="100%" viewBox="0 0 128 1024" version="1.1" xmlns="http://www.w3.org/2000/svg" xmlns:xlink="http://www.w3.org/1999/xlink" xml:space="preserve" xmlns:serif="http://www.serif.com/" style="fill-rule:evenodd;clip-rule:evenodd;stroke-linejoin:round;stroke-miterlimit:2;">
    <g transform="matrix(4.55801e-17,-1.23742,0.700127,-0.00534697,-149.189,735.352)">
        <g id="EXHIBITIONS">
            <g id="EXHIBITIONS1" serif:id="EXHIBITIONS">
                <path d="M-225.256,379.455L-225.256,229.871L-191.363,229.871L-191.363,258.778L-208.014,258.778L-208.014,287.859L-192.053,287.859L-192.053,316.069L-208.014,316.069L-208.014,350.374L-190.279,350.374L-190.279,379.455L-225.256,379.455Z" style="fill-rule:nonzero;"/>
                <path d="M-188.9,379.455L-179.835,300.048L-187.028,229.697L-170.475,229.697L-166.042,281.241L-162.199,229.697L-145.548,229.697L-152.839,300.048L-143.775,379.455L-160.918,379.455L-166.239,320.945L-171.658,379.455L-188.9,379.455Z" style="fill-rule:nonzero;"/>
                <path d="M-140.523,379.455L-140.523,229.871L-123.675,229.871L-123.675,283.331L-115.695,283.331L-115.695,229.871L-98.847,229.871L-98.847,379.455L-115.695,379.455L-115.695,311.541L-123.675,311.541L-123.675,379.455L-140.523,379.455Z" style="fill-rule:nonzero;"/>
                <rect x="-93.921" y="229.871" width="16.355" height="149.584" style="fill-rule:nonzero;"/>
                <path d="M-72.54,229.871L-49.584,229.871C-43.409,229.871 -38.927,232.541 -36.135,237.881C-33.343,243.221 -31.948,251.928 -31.948,264.002L-31.948,270.619C-31.948,284.898 -34.838,293.431 -40.618,296.217C-37.071,297.842 -34.575,301.615 -33.13,307.536C-31.685,313.457 -30.962,321.293 -30.962,331.045C-30.962,346.949 -32.309,358.994 -35.002,367.178C-37.695,375.363 -42.556,379.455 -49.584,379.455L-72.54,379.455L-72.54,229.871ZM-52.54,286.117C-51.094,286.117 -50.109,285.159 -49.584,283.244C-49.058,281.328 -48.796,278.629 -48.796,275.147L-48.796,260.171C-48.796,255.295 -50.011,252.857 -52.441,252.857L-55.988,252.857L-55.988,286.117L-52.54,286.117ZM-54.313,353.16C-49.912,353.16 -47.712,349.445 -47.712,342.015L-47.712,323.383C-47.712,318.855 -48.089,315.43 -48.845,313.109C-49.6,310.787 -50.93,309.626 -52.835,309.626L-55.988,309.626L-55.988,352.986L-54.313,353.16Z" style="fill-rule:nonzero;"/>
                <rect x="-27.908" y="229.871" width="16.355" height="149.584" style="fill-rule:nonzero;"/>
                <path d="M0.763,379.455L0.763,258.603L-9.287,258.603L-9.287,229.871L27.759,229.871L27.759,258.603L17.71,258.603L17.71,379.455L0.763,379.455Z" style="fill-rule:nonzero;"/>
                <rect x="29.927" y="229.871" width="16.355" height="149.584" style="fill-rule:nonzero;"/>
                <path d="M71.505,380.848C64.674,380.848 59.485,377.162 55.938,369.79C52.391,362.419 50.617,352.057 50.617,338.707L50.617,267.484C50.617,254.598 52.391,244.876 55.938,238.316C59.485,231.757 64.674,228.478 71.505,228.478C78.336,228.478 83.525,231.757 87.072,238.316C90.619,244.876 92.393,254.598 92.393,267.484L92.393,338.707C92.393,352.173 90.619,362.564 87.072,369.877C83.525,377.191 78.336,380.848 71.505,380.848ZM71.505,353.334C73.016,353.334 74.034,352.173 74.559,349.852C75.085,347.53 75.347,344.279 75.347,340.1L75.347,266.962C75.347,263.711 75.101,261.07 74.609,259.039C74.116,257.007 73.114,255.991 71.603,255.991C68.779,255.991 67.367,259.764 67.367,267.31L67.367,340.274C67.367,344.569 67.662,347.82 68.254,350.026C68.845,352.232 69.929,353.334 71.505,353.334Z" style="fill-rule:nonzero;"/>
                <path d="M97.417,379.455L97.417,229.871L114.856,229.871L122.64,301.441L122.64,229.871L138.995,229.871L138.995,379.455L122.443,379.455L113.97,304.576L113.97,379.455L97.417,379.455Z" style="fill-rule:nonzero;"/>
                <path d="M164.809,380.848C157.124,380.848 151.574,377.482 148.158,370.748C144.743,364.015 143.035,353.16 143.035,338.184L143.035,323.557L159.686,323.557L159.686,342.19C159.686,349.619 161.032,353.334 163.726,353.334C165.236,353.334 166.287,352.551 166.878,350.984C167.469,349.416 167.765,346.775 167.765,343.06C167.765,338.184 167.437,334.15 166.78,330.958C166.123,327.765 165.286,325.095 164.267,322.947C163.249,320.8 161.427,317.462 158.799,312.934L151.508,300.048C145.859,290.297 143.035,279.5 143.035,267.659C143.035,254.888 144.694,245.166 148.011,238.491C151.328,231.815 156.172,228.478 162.543,228.478C170.163,228.478 175.647,232.047 178.997,239.187C182.347,246.327 184.022,257.501 184.022,272.709L166.78,272.709L166.681,262.434C166.681,260.461 166.369,258.894 165.745,257.733C165.121,256.572 164.251,255.991 163.134,255.991C161.821,255.991 160.835,256.63 160.179,257.907C159.522,259.184 159.193,260.925 159.193,263.131C159.193,268.007 160.77,273.057 163.923,278.281L173.775,294.998C176.074,298.945 177.979,302.689 179.49,306.23C181,309.771 182.216,313.95 183.135,318.768C184.055,323.586 184.515,329.303 184.515,335.921C184.515,350.664 182.987,361.838 179.933,369.442C176.879,377.046 171.837,380.848 164.809,380.848Z" style="fill-rule:nonzero;"/>
            </g>
        </g>
    </g>
</svg>
