<?xml version="1.0" encoding="UTF-8" standalone="no"?>
<!DOCTYPE svg PUBLIC "-//W3C//DTD SVG 1.1//EN" "http://www.w3.org/Graphics/SVG/1.1/DTD/svg11.dtd">
<svg width="100%" height="100%" viewBox="0 0 128 1024" version="1.1" xmlns="http://www.w3.org/2000/svg" xmlns:xlink="http://www.w3.org/1999/xlink" xml:space="preserve" xmlns:serif="http://www.serif.com/" style="fill-rule:evenodd;clip-rule:evenodd;stroke-linejoin:round;stroke-miterlimit:2;">
    <g transform="matrix(4.55801e-17,-0.958242,0.700127,-0.00414061,-149.189,799.008)">
        <g id="FRANCAIS">
            <g id="FRANCAIS1" serif:id="FRANCAIS">
                <path d="M-224.165,379.455L-224.165,229.871L-180.398,229.871L-180.398,258.952L-202.154,258.952L-202.154,282.809L-181.543,282.809L-181.543,311.541L-202.154,311.541L-202.154,379.455L-224.165,379.455Z" style="fill-rule:nonzero;"/>
                <path d="M-175.69,229.871L-142.101,229.871C-136.757,229.871 -132.622,231.525 -129.696,234.834C-126.769,238.142 -124.797,242.786 -123.78,248.765C-122.762,254.743 -122.253,262.376 -122.253,271.664C-122.253,280.138 -123.059,286.756 -124.67,291.515C-126.282,296.275 -129.081,299.584 -133.067,301.441C-129.759,302.37 -127.363,304.634 -125.879,308.233C-124.394,311.832 -123.652,316.707 -123.652,322.86L-123.907,379.455L-145.282,379.455L-145.282,320.945C-145.282,316.765 -145.875,314.095 -147.063,312.934C-148.25,311.774 -150.413,311.193 -153.552,311.193L-153.552,379.455L-175.69,379.455L-175.69,229.871ZM-148.208,285.247C-145.154,285.247 -143.628,280.719 -143.628,271.664C-143.628,267.717 -143.755,264.756 -144.009,262.783C-144.264,260.809 -144.73,259.445 -145.409,258.69C-146.087,257.936 -147.063,257.559 -148.335,257.559L-153.424,257.559L-153.424,285.247L-148.208,285.247Z" style="fill-rule:nonzero;"/>
                <g transform="matrix(1,0,8.67362e-19,1,0.521789,0)">
                    <path d="M-120.217,379.455L-109.657,229.871L-72.632,229.871L-62.199,379.455L-82.938,379.455L-84.465,355.25L-97.697,355.25L-98.969,379.455L-120.217,379.455ZM-96.043,331.393L-86.119,331.393L-90.954,255.295L-91.972,255.295L-96.043,331.393Z" style="fill-rule:nonzero;"/>
                </g>
                <g transform="matrix(1,0,8.67362e-19,1,0.521789,0)">
                    <path d="M-57.874,379.455L-57.874,229.871L-35.354,229.871L-25.302,301.441L-25.302,229.871L-4.182,229.871L-4.182,379.455L-25.557,379.455L-36.499,304.576L-36.499,379.455L-57.874,379.455Z" style="fill-rule:nonzero;"/>
                </g>
                <g transform="matrix(1,0,2.60209e-18,1,-2.08715,0)">
                    <path d="M56.253,315.024L56.253,343.234C56.253,365.872 48.746,378.294 33.733,380.5C37.55,385.26 40.433,390.282 42.511,395.912L28.683,395.912C28.569,395.91 28.644,395.289 27.817,392.254C26.757,388.365 25.251,384.389 23.3,380.326C16.854,378.817 11.743,374.753 7.969,368.136C4.194,361.519 2.307,352.928 2.307,342.364L2.307,273.405C2.307,258.545 4.47,247.343 8.796,239.797C13.122,232.251 19.907,228.478 29.153,228.478C37.211,228.478 43.7,231.496 48.619,237.533C53.539,243.57 55.999,252.276 55.999,263.653L55.999,289.426L34.242,289.426L34.242,267.31C34.242,263.015 33.86,260.055 33.097,258.429C32.334,256.804 31.019,255.991 29.153,255.991C27.202,255.991 25.866,256.92 25.145,258.778C24.424,260.635 24.063,263.363 24.063,266.962L24.063,342.015C24.063,345.963 24.488,348.836 25.336,350.635C26.184,352.435 27.456,353.334 29.153,353.334C32.546,353.334 34.242,349.561 34.242,342.015L34.242,315.024L56.253,315.024Z" style="fill-rule:nonzero;"/>
                </g>
                <g transform="matrix(1,0,2.60209e-18,1,-1.56537,0)">
                    <path d="M58.289,379.455L68.849,229.871L105.873,229.871L116.306,379.455L95.568,379.455L94.041,355.25L80.809,355.25L79.536,379.455L58.289,379.455ZM82.463,331.393L92.387,331.393L87.552,255.295L86.534,255.295L82.463,331.393Z" style="fill-rule:nonzero;"/>
                </g>
                <g transform="matrix(1,0,1.73472e-18,1,-1.04358,0)">
                    <rect x="119.614" y="229.871" width="21.12" height="149.584" style="fill-rule:nonzero;"/>
                </g>
                <g transform="matrix(1,0,1.73472e-18,1,-1.04358,0)">
                    <path d="M173.179,380.848C163.255,380.848 156.087,377.482 151.677,370.748C147.266,364.015 145.061,353.16 145.061,338.184L145.061,323.557L166.563,323.557L166.563,342.19C166.563,349.619 168.302,353.334 171.779,353.334C173.73,353.334 175.087,352.551 175.851,350.984C176.614,349.416 176.996,346.775 176.996,343.06C176.996,338.184 176.572,334.15 175.723,330.958C174.875,327.765 173.794,325.095 172.479,322.947C171.164,320.8 168.811,317.462 165.418,312.934L156.003,300.048C148.708,290.297 145.061,279.5 145.061,267.659C145.061,254.888 147.202,245.166 151.486,238.491C155.769,231.815 162.025,228.478 170.252,228.478C180.092,228.478 187.174,232.047 191.5,239.187C195.826,246.327 197.989,257.501 197.989,272.709L175.723,272.709L175.596,262.434C175.596,260.461 175.193,258.894 174.388,257.733C173.582,256.572 172.458,255.991 171.016,255.991C169.319,255.991 168.047,256.63 167.199,257.907C166.351,259.184 165.927,260.925 165.927,263.131C165.927,268.007 167.962,273.057 172.034,278.281L184.757,294.998C187.726,298.945 190.185,302.689 192.136,306.23C194.087,309.771 195.656,313.95 196.844,318.768C198.031,323.586 198.625,329.303 198.625,335.921C198.625,350.664 196.653,361.838 192.709,369.442C188.765,377.046 182.255,380.848 173.179,380.848Z" style="fill-rule:nonzero;"/>
                </g>
            </g>
        </g>
    </g>
</svg>
