<?xml version="1.0" standalone="no"?>
<!DOCTYPE svg PUBLIC "-//W3C//DTD SVG 20010904//EN"
 "http://www.w3.org/TR/2001/REC-SVG-20010904/DTD/svg10.dtd">
<svg version="1.0" xmlns="http://www.w3.org/2000/svg"
 width="2468.000000pt" height="2468.000000pt" viewBox="0 0 2468.000000 2468.000000"
 preserveAspectRatio="xMidYMid meet">
<metadata>
Created by potrace 1.14, written by Peter Selinger 2001-2017
</metadata>
<g transform="translate(0.000000,2468.000000) scale(0.100000,-0.100000)"
fill="#000000" stroke="none">
<path d="M2379 15135 c-2 -2 -24 -6 -49 -10 -327 -47 -560 -289 -625 -650 -29
-162 -27 -421 4 -523 5 -18 11 -36 12 -40 24 -92 127 -305 164 -337 6 -5 29
-32 50 -60 21 -27 171 -183 333 -345 316 -317 367 -375 412 -472 47 -101 62
-172 66 -313 6 -220 -25 -285 -146 -298 -80 -8 -138 26 -173 103 -19 41 -20
67 -23 327 -1 155 -4 285 -7 290 -3 4 -164 8 -359 8 l-353 0 -1 -46 c0 -25 -3
-50 -6 -55 -2 -5 -3 -20 -1 -34 2 -14 3 -32 3 -40 0 -8 0 -35 0 -60 0 -101 9
-347 14 -380 3 -19 8 -51 11 -70 6 -40 24 -128 31 -150 3 -8 5 -16 5 -17 -2
-9 51 -137 74 -178 45 -80 142 -195 165 -195 6 0 10 -3 10 -8 0 -12 98 -67
170 -95 124 -49 237 -68 420 -72 150 -3 257 9 360 40 61 19 163 66 168 78 2 4
8 7 13 7 10 0 60 43 107 90 50 51 176 270 155 270 -3 0 -1 6 5 13 16 19 55
184 66 277 3 25 8 58 11 74 9 42 10 371 2 432 -26 210 -99 395 -223 560 -59
80 -298 323 -568 579 -210 200 -267 280 -289 412 -15 85 8 157 60 193 47 32
141 34 190 5 54 -32 65 -69 69 -233 1 -79 5 -146 7 -149 7 -6 725 -6 736 1 8
6 7 102 -4 206 -4 30 -7 62 -7 70 0 8 -5 38 -10 65 -5 28 -11 64 -14 82 -17
108 -97 291 -162 373 -40 51 -99 110 -109 110 -4 0 -16 9 -27 19 -38 35 -189
102 -262 116 -10 2 -19 4 -19 5 0 2 -33 9 -70 16 -37 6 -381 15 -386 9z"/>
<path d="M8259 15136 c-2 -2 -23 -6 -47 -10 -197 -27 -387 -132 -488 -271 -16
-22 -31 -42 -34 -45 -25 -23 -140 -300 -125 -300 2 0 1 -10 -4 -23 -5 -13 -12
-41 -15 -63 -4 -21 -9 -52 -12 -69 -3 -16 -7 -50 -10 -75 -9 -70 -11 -2030 -3
-2075 4 -22 10 -62 13 -90 6 -47 27 -125 46 -170 4 -11 14 -35 21 -54 22 -58
108 -181 168 -241 58 -57 150 -124 206 -149 69 -31 149 -61 153 -57 2 3 15 0
29 -5 13 -5 48 -12 76 -16 63 -10 319 -9 367 1 19 4 51 9 70 12 116 19 288 92
355 150 17 14 41 36 55 48 107 91 190 266 225 471 6 34 18 193 16 213 -1 16
-1 20 0 227 0 99 0 182 -2 185 -1 3 0 10 1 15 1 6 2 70 2 144 l1 134 -354 0
c-195 -1 -361 -2 -369 -2 -14 -1 -16 -46 -16 -373 -1 -315 -3 -382 -17 -428
-30 -100 -92 -144 -184 -130 -57 9 -105 56 -125 122 -9 34 -12 268 -13 1068 0
968 1 1028 18 1081 26 77 72 108 158 104 71 -3 105 -23 131 -76 27 -53 32
-125 32 -446 l0 -293 363 0 c339 0 363 1 364 18 4 87 0 702 -5 748 -24 205
-101 371 -227 489 -52 49 -141 115 -154 115 -4 0 -20 9 -36 21 -16 11 -29 18
-29 14 0 -3 -14 2 -31 11 -17 8 -38 17 -47 20 -10 2 -42 11 -72 19 -30 8 -66
18 -80 21 -29 7 -364 16 -371 10z"/>
<path d="M12890 15130 c-25 -5 -58 -12 -75 -15 -81 -16 -227 -84 -287 -134
-36 -29 -77 -71 -111 -114 -35 -44 -110 -167 -101 -167 2 0 -2 -12 -10 -27
-45 -88 -79 -286 -79 -458 -1 -156 11 -239 53 -360 24 -73 121 -245 177 -314
36 -46 197 -215 358 -377 161 -161 309 -313 328 -336 35 -43 111 -178 100
-178 -3 0 2 -11 11 -25 9 -14 14 -25 12 -25 -3 0 -1 -14 4 -30 24 -84 30 -296
10 -370 -25 -92 -105 -131 -217 -105 -50 12 -98 84 -111 165 -3 19 -6 151 -6
293 -1 221 -3 257 -16 258 -43 3 -677 4 -691 1 -14 -3 -15 -34 -12 -270 3
-259 5 -321 17 -389 3 -18 8 -45 11 -60 19 -110 41 -178 93 -283 78 -159 206
-271 382 -333 89 -31 124 -39 250 -56 70 -9 323 -7 380 4 114 21 279 82 288
106 2 5 9 9 16 9 22 0 150 132 177 182 6 13 15 25 18 28 11 9 61 117 61 131 0
8 4 19 9 25 4 5 16 37 25 72 17 63 20 76 32 142 4 19 8 44 11 55 11 56 17 166
17 315 1 224 -8 293 -56 439 -82 251 -164 356 -614 786 -272 260 -298 288
-351 369 -81 123 -90 269 -23 341 27 29 108 50 157 40 19 -3 48 -16 64 -27 45
-34 56 -77 58 -233 1 -76 4 -141 6 -143 3 -3 527 -5 717 -2 l27 0 -5 113 c-2
61 -6 128 -9 147 -3 19 -7 53 -11 75 -3 22 -12 69 -21 105 -8 36 -17 72 -18
80 -2 8 -4 16 -5 18 -2 1 -3 5 -5 10 -3 11 -16 42 -46 110 -99 222 -279 351
-570 407 -56 11 -370 15 -419 5z"/>
<path d="M19 15076 c0 -40 0 -3619 0 -3626 1 -3 341 -5 756 -5 l755 0 1 45 c0
57 0 606 0 641 l-1 26 -376 -1 c-240 -1 -378 3 -383 9 -4 6 -7 195 -7 420 l1
410 335 1 c185 0 340 3 346 6 6 4 9 137 9 345 l0 338 -305 2 c-168 1 -323 2
-345 2 l-40 1 0 351 c0 343 1 352 20 359 11 4 24 5 28 3 4 -3 38 -4 75 -3 37
1 72 1 77 1 6 1 40 -1 77 -2 37 -2 70 0 73 3 3 3 22 2 43 -1 20 -3 57 -4 82
-1 25 3 62 2 82 -1 20 -3 42 -3 49 1 6 4 23 5 38 1 14 -4 37 -5 51 -1 l25 6 0
349 0 350 -733 1 -732 1 -1 -31z"/>
<path d="M3699 15077 c-1 -40 -1 -3608 0 -3622 1 -7 127 -10 360 -10 l358 0 1
718 c0 395 3 721 7 725 3 4 93 7 198 8 216 1 292 9 385 40 178 60 298 181 367
368 15 39 29 78 32 86 8 20 8 18 21 80 35 160 46 284 46 510 0 309 -17 446
-80 630 -98 289 -269 438 -555 484 -54 9 -235 13 -608 14 l-531 0 -1 -31z
m865 -641 c52 -8 91 -31 119 -68 24 -32 48 -93 53 -133 2 -11 6 -40 10 -65 3
-25 7 -97 7 -160 1 -354 -54 -442 -281 -454 -52 -3 -52 -3 -53 28 0 17 0 215
-1 440 0 285 4 411 11 416 12 7 76 5 135 -4z"/>
<path d="M5796 15091 c-3 -9 -8 -47 -12 -86 -3 -38 -7 -83 -9 -100 -1 -16 -6
-61 -9 -100 -4 -38 -9 -86 -11 -105 -2 -19 -7 -69 -10 -110 -4 -41 -8 -91 -10
-110 -14 -139 -17 -168 -20 -190 -2 -14 -7 -63 -10 -110 -3 -47 -7 -96 -9
-110 -3 -14 -7 -56 -11 -95 -3 -38 -7 -90 -10 -115 -2 -25 -7 -70 -10 -100 -3
-30 -8 -75 -10 -100 -3 -25 -8 -70 -10 -100 -3 -30 -7 -71 -9 -90 -2 -19 -7
-73 -11 -120 -3 -47 -8 -96 -10 -110 -2 -14 -6 -54 -10 -90 -3 -36 -8 -87 -11
-115 -3 -27 -7 -70 -9 -95 -10 -109 -15 -168 -20 -210 -3 -25 -7 -70 -10 -100
-5 -69 -14 -160 -21 -225 -3 -27 -8 -72 -10 -100 -1 -27 -4 -50 -4 -50 -2 0
-7 -52 -14 -140 -7 -77 -11 -120 -22 -212 -2 -24 -7 -71 -10 -105 -5 -61 -7
-84 -19 -213 -3 -33 -8 -77 -11 -97 -3 -21 -1 -39 3 -39 4 -1 164 -2 355 -3
l348 -1 5 30 c3 16 5 39 5 50 -1 11 2 52 5 90 8 91 13 168 20 285 8 153 -20
136 230 137 118 0 218 -4 221 -8 5 -9 10 -58 18 -175 3 -34 7 -81 10 -105 6
-50 20 -213 25 -284 1 -20 7 -20 348 -20 l347 0 -2 35 c-1 19 -4 51 -6 70 -4
35 -14 138 -21 215 -2 22 -6 67 -9 100 -3 33 -8 89 -12 125 -3 36 -7 76 -9 90
-2 14 -7 61 -10 105 -3 44 -8 91 -10 105 -4 23 -13 123 -21 215 -1 22 -6 72
-10 110 -4 39 -8 87 -8 107 -1 21 -3 38 -6 38 -3 0 -5 17 -6 38 0 39 -12 179
-19 222 -2 14 -6 57 -10 95 -3 39 -8 88 -10 110 -3 22 -7 72 -10 110 -3 39 -7
81 -10 95 -2 14 -7 61 -9 105 -3 44 -6 80 -6 80 -2 0 -8 51 -14 131 -4 44 -8
89 -10 100 -2 10 -7 60 -11 109 -4 50 -9 106 -11 125 -3 19 -7 62 -9 95 -3 33
-7 78 -10 100 -2 22 -7 69 -10 105 -2 36 -7 81 -10 100 -3 19 -7 67 -10 105
-3 39 -7 86 -9 105 -3 19 -7 67 -11 105 -3 39 -8 86 -10 105 -2 19 -7 71 -10
114 -3 44 -8 83 -11 87 -2 4 -281 7 -619 7 -558 0 -615 -2 -619 -17z m630
-662 c2 -30 6 -74 9 -99 3 -25 8 -72 10 -105 2 -33 7 -87 10 -120 7 -77 14
-165 20 -235 5 -66 13 -154 21 -230 3 -30 7 -86 10 -125 3 -38 7 -88 9 -110 2
-22 7 -74 10 -115 3 -41 8 -93 10 -115 3 -22 7 -76 11 -120 3 -44 7 -95 9
-115 10 -91 19 -210 19 -260 l1 -55 -162 -1 -161 -1 3 53 c2 29 6 86 10 126 3
40 8 105 10 143 2 39 6 93 9 120 3 28 8 97 11 155 4 58 8 121 10 140 2 19 7
78 10 130 8 103 9 114 20 270 4 58 8 121 10 140 3 30 9 110 20 275 2 22 6 86
10 143 4 57 8 111 10 120 2 9 4 24 4 34 1 9 8 15 18 14 12 -2 17 -15 19 -57z"/>
<path d="M9546 15101 c-2 -3 -3 -827 -2 -1831 l1 -1825 745 -1 c410 0 750 1
755 3 8 2 11 119 10 356 l0 352 -370 2 c-203 1 -376 2 -382 2 -10 1 -13 92
-13 419 l0 419 341 -1 c187 -1 343 2 345 5 3 6 5 201 4 521 l-1 166 -307 1
c-169 0 -325 0 -347 0 l-40 1 3 355 2 354 33 1 c17 0 41 0 52 0 11 0 43 1 70
1 28 1 59 0 70 -1 11 -1 30 -1 43 -1 12 0 30 1 40 1 51 2 140 2 157 0 11 -1
30 -1 43 -1 12 0 30 1 40 1 25 1 134 2 155 1 16 0 17 24 17 353 l0 354 -730 0
c-402 0 -732 -3 -734 -7z"/>
<path d="M14121 15011 c-1 -53 -2 -103 -1 -111 0 -8 0 -62 0 -120 0 -58 0
-112 0 -120 0 -8 1 -69 2 -135 l3 -120 210 -1 c116 -1 212 -2 215 -3 3 0 6
-663 5 -1472 0 -969 3 -1473 10 -1478 6 -4 170 -7 365 -7 l355 1 5 1480 5
1480 210 -1 c116 0 212 3 215 7 3 4 5 162 5 351 l0 343 -801 1 -801 2 -2 -97z"/>
<path d="M18099 15106 c-1 -1 -2 -647 -3 -1436 -2 -1055 -6 -1446 -14 -1475
-21 -72 -79 -110 -165 -108 -76 2 -128 57 -145 153 -4 25 -7 244 -6 488 l1
442 -26 1 c-263 5 -691 2 -694 -6 -6 -21 0 -983 7 -1040 33 -279 189 -499 437
-618 63 -30 191 -71 259 -82 65 -11 297 -14 339 -4 20 4 50 10 66 12 36 6 186
56 200 67 6 4 28 18 50 30 84 46 150 104 235 206 66 79 156 277 162 354 1 17
5 30 8 30 3 0 6 10 7 23 0 12 4 49 8 82 6 44 11 2642 6 2852 l-1 32 -365 -1
c-201 -1 -366 -1 -366 -2z"/>
<path d="M19050 13276 l0 -1831 753 0 c413 0 754 3 757 6 3 4 5 164 5 356 l-1
348 -375 1 c-207 0 -380 3 -385 6 -5 4 -9 180 -9 420 l1 413 344 1 345 0 0
345 0 344 -338 2 c-187 1 -342 4 -345 8 -4 3 -7 163 -7 356 l0 349 25 1 c14 1
30 0 35 -1 6 -1 35 -2 65 -1 56 2 71 2 93 0 6 -1 35 -1 62 0 28 0 62 1 78 1
15 0 35 0 45 0 51 2 140 2 157 0 11 -1 31 -1 45 -1 14 0 45 1 70 0 l46 0 -2
348 c0 191 -2 351 -3 354 0 4 -329 7 -731 7 l-730 -1 0 -1831z"/>
<path d="M21085 15090 c-3 -10 -7 -35 -9 -56 -10 -99 -18 -183 -21 -229 -2
-27 -6 -68 -9 -90 -6 -46 -12 -109 -21 -210 -3 -38 -8 -86 -10 -105 -7 -60
-14 -142 -20 -215 -3 -38 -8 -81 -10 -95 -3 -14 -7 -56 -10 -95 -5 -66 -12
-142 -20 -210 -2 -16 -6 -66 -10 -110 -3 -44 -8 -91 -10 -105 -2 -14 -7 -59
-10 -100 -3 -41 -8 -91 -10 -110 -3 -19 -7 -60 -10 -90 -3 -30 -7 -80 -10
-110 -3 -30 -8 -77 -10 -105 -3 -27 -7 -75 -10 -105 -3 -30 -7 -75 -9 -100 -2
-25 -5 -45 -5 -45 -1 0 -4 -22 -6 -50 -3 -47 -10 -118 -20 -211 -2 -23 -7 -72
-10 -110 -3 -38 -8 -82 -9 -99 -17 -160 -22 -213 -30 -310 -4 -38 -8 -88 -11
-110 -3 -22 -7 -65 -10 -95 -2 -30 -7 -75 -9 -100 -11 -107 -19 -207 -20 -240
l-1 -35 348 0 c225 0 351 3 355 10 4 5 7 24 8 40 2 46 14 214 18 270 4 41 13
155 20 250 1 19 8 20 219 21 120 0 220 -3 222 -6 3 -4 7 -36 9 -71 3 -35 8
-93 11 -129 10 -102 13 -138 21 -240 3 -52 8 -102 10 -110 1 -8 3 -20 3 -25 1
-7 123 -10 347 -10 l346 0 -6 80 c-4 44 -9 96 -11 115 -2 19 -7 67 -10 105 -4
39 -8 86 -10 105 -2 19 -6 67 -9 105 -4 39 -9 88 -11 110 -3 22 -7 69 -10 105
-3 36 -7 76 -9 90 -3 14 -7 61 -10 105 -4 44 -9 98 -11 120 -3 22 -8 67 -11
100 -14 173 -21 249 -40 420 -5 49 -9 93 -18 210 -3 33 -8 78 -10 100 -3 22
-8 69 -11 105 -3 36 -7 85 -10 110 -7 64 -23 227 -30 315 -10 107 -14 152 -20
215 -12 119 -16 154 -20 215 -2 33 -5 60 -5 60 -2 0 -8 51 -15 135 -3 47 -8
98 -10 115 -2 16 -7 62 -10 100 -3 39 -8 84 -11 100 -3 17 -7 62 -9 100 -6 94
-14 175 -20 201 l-5 22 -615 -1 c-571 0 -615 -2 -620 -17z m626 -614 c1 -6 2
-27 4 -46 5 -70 15 -186 20 -230 3 -25 8 -76 11 -115 3 -38 7 -97 10 -130 3
-33 7 -78 9 -100 4 -55 15 -181 21 -235 2 -25 6 -72 9 -105 5 -66 13 -165 20
-235 3 -25 7 -77 10 -116 3 -40 8 -91 10 -115 3 -24 7 -80 10 -124 4 -44 8
-96 10 -115 2 -19 7 -69 10 -111 l6 -75 -165 -1 -165 0 5 71 c2 39 6 98 9 131
8 108 15 209 20 275 2 36 7 97 10 135 3 39 8 99 10 135 2 36 6 97 9 135 7 76
13 168 21 285 3 41 7 100 10 130 2 30 7 93 10 140 3 47 8 105 10 130 2 25 7
90 11 145 7 99 11 149 13 151 7 6 31 -2 32 -10z"/>
<path d="M22879 15106 c-1 0 -3 -823 -3 -1828 -1 -1264 1 -1828 9 -1831 5 -2
165 -3 355 -3 l345 1 5 905 5 905 23 -115 c13 -63 25 -126 28 -140 2 -14 9
-45 14 -70 5 -25 12 -56 14 -70 2 -14 20 -104 40 -200 19 -96 37 -186 40 -200
5 -26 23 -121 30 -155 2 -11 13 -65 25 -120 11 -55 22 -111 25 -125 7 -36 24
-121 31 -150 3 -14 8 -34 9 -45 2 -11 7 -40 11 -65 3 -24 8 -48 11 -51 2 -4 6
-24 10 -45 3 -22 9 -55 14 -74 5 -19 11 -51 15 -70 3 -19 9 -53 13 -75 l7 -40
350 -1 c193 0 355 1 360 3 7 2 10 618 9 1826 -1 1002 -2 1825 -3 1829 -1 3
-160 6 -353 5 l-353 -2 1 -858 c0 -471 -3 -851 -7 -845 -4 7 -10 29 -13 48 -3
19 -7 44 -9 55 -4 18 -8 38 -24 125 -2 14 -13 70 -24 125 -11 55 -22 109 -23
120 -3 20 -15 82 -23 120 -2 11 -8 43 -13 70 -6 28 -12 61 -15 75 -3 14 -12
61 -21 105 -8 44 -18 94 -20 110 -4 25 -19 97 -39 196 -2 9 -6 32 -9 50 -3 19
-8 45 -11 59 -9 43 -26 134 -30 155 -2 11 -10 56 -19 100 -8 44 -17 91 -20
105 -3 14 -8 39 -11 56 l-7 31 -374 0 c-206 0 -375 0 -375 -1z"/>
<path d="M15639 12982 c-1 -4 -2 -112 -3 -239 -1 -154 2 -233 9 -234 32 -3
1024 -4 1043 0 l22 3 0 239 0 238 -535 0 c-294 1 -536 -3 -536 -7z"/>
<path d="M19 10780 c0 -16 -1 -46 -1 -65 0 -19 1 -45 1 -58 l1 -22 12324 0
c10984 0 12325 1 12328 15 3 13 3 108 -1 148 -1 9 -2473 12 -12326 12 l-12325
0 -1 -30z"/>
<path d="M12374 10232 c-16 -2 -34 -30 -72 -110 -28 -59 -98 -204 -155 -322
-135 -279 -130 -260 -69 -259 l49 2 53 111 c30 61 90 188 135 281 45 94 85
177 89 185 4 8 17 35 30 60 13 25 23 46 22 48 -5 4 -61 8 -82 4z"/>
<path d="M2822 10174 c-94 -24 -163 -89 -192 -177 -17 -51 -19 -127 -6 -180 8
-35 47 -98 78 -127 122 -115 350 -81 421 64 35 70 41 96 25 97 -20 1 -81 1
-100 0 -11 -1 -18 -9 -18 -21 0 -30 -58 -88 -100 -101 -77 -23 -172 28 -189
103 -10 43 -5 152 7 156 7 2 12 10 12 17 0 7 17 27 38 44 33 25 46 29 89 27
64 -3 117 -37 138 -88 l15 -38 60 0 c33 0 60 2 60 5 0 28 -40 107 -72 141 -68
73 -170 102 -266 78z"/>
<path d="M3629 10170 c-129 -43 -193 -133 -193 -270 0 -118 48 -199 149 -253
61 -32 175 -34 241 -3 60 28 106 74 136 136 30 63 31 177 1 240 -23 49 -73
110 -91 110 -7 0 -12 3 -12 8 0 16 -92 44 -155 46 -16 1 -51 -5 -76 -14z m145
-105 c21 -9 47 -32 63 -57 24 -35 28 -52 28 -108 0 -56 -4 -73 -28 -108 -16
-25 -42 -48 -63 -57 -43 -18 -119 -11 -154 14 -39 27 -70 98 -68 156 4 133
108 208 222 160z"/>
<path d="M8329 10179 c-110 -16 -195 -93 -222 -200 -35 -134 21 -269 138 -332
53 -29 192 -31 246 -4 158 78 206 288 100 435 -50 70 -167 115 -262 101z m142
-135 c60 -57 76 -151 40 -230 -28 -61 -72 -88 -144 -89 -32 0 -61 5 -65 11 -4
6 -15 13 -24 17 -30 11 -66 96 -63 152 4 117 63 175 173 170 43 -2 58 -7 83
-31z"/>
<path d="M13328 10185 c-2 -2 -23 -6 -48 -9 -39 -5 -140 -60 -140 -77 0 -3 -8
-14 -18 -25 -33 -36 -53 -93 -56 -162 -7 -166 117 -297 276 -291 35 1 75 8 90
16 15 7 31 13 34 12 14 -3 96 75 113 109 30 60 35 92 14 93 -102 6 -102 6
-117 -31 -28 -69 -86 -103 -162 -94 -78 9 -124 68 -129 168 -4 67 25 130 74
163 28 19 45 23 86 20 64 -5 96 -26 126 -82 l24 -45 59 0 c56 0 58 1 51 23 -3
12 -9 32 -12 45 -3 12 -9 22 -14 22 -5 0 -9 6 -9 13 0 21 -54 74 -100 97 -36
18 -134 42 -142 35z"/>
<path d="M14147 10184 c-1 -1 -19 -4 -39 -7 -133 -17 -230 -143 -222 -290 8
-157 125 -272 274 -268 53 2 128 21 141 37 6 8 16 14 21 14 16 0 66 61 90 110
23 46 30 141 16 201 -19 83 -94 161 -176 186 -50 14 -99 22 -105 17z m94 -127
c48 -32 73 -81 75 -147 4 -125 -72 -201 -184 -184 -141 21 -179 246 -56 329
44 30 123 31 165 2z"/>
<path d="M18746 10172 c-164 -42 -249 -239 -171 -397 33 -66 51 -86 105 -117
84 -48 171 -53 259 -12 95 43 159 140 161 244 1 43 -6 96 -16 111 -9 14 -10
19 -13 39 -2 16 -85 97 -117 113 -62 32 -133 38 -208 19z m162 -119 c37 -28
62 -65 67 -99 2 -16 4 -31 5 -34 6 -17 -5 -72 -22 -112 -51 -119 -228 -112
-279 11 -26 64 -13 165 28 213 43 50 147 61 201 21z"/>
<path d="M199 10159 c-4 -9 -36 -90 -70 -180 -95 -253 -106 -282 -118 -312 -6
-16 -11 -30 -11 -33 0 -2 26 -4 58 -4 l57 0 20 58 20 57 104 0 104 0 18 -43
c11 -24 19 -50 19 -58 0 -11 16 -14 64 -14 l65 0 -18 53 c-20 57 -130 350
-163 435 -11 28 -23 52 -27 53 -71 6 -114 2 -122 -12z m79 -154 c7 -14 12 -34
12 -43 0 -10 4 -22 8 -27 17 -21 34 -87 24 -94 -11 -7 -121 -6 -128 1 -2 3 9
41 26 84 16 43 30 84 30 91 0 22 16 14 28 -12z"/>
<path d="M830 10172 c-6 -2 -10 -104 -10 -273 l0 -269 58 0 58 0 -1 94 0 94
29 5 c36 5 49 -7 112 -111 l49 -81 68 -1 c37 0 67 2 67 5 0 9 -114 180 -122
183 -17 8 -6 23 26 38 18 9 45 34 59 57 60 93 12 217 -97 247 -37 10 -273 20
-296 12z m281 -121 c36 -38 21 -112 -25 -127 -26 -9 -146 -12 -147 -4 -1 3 -2
39 -3 81 l-2 77 79 -3 c64 -3 82 -7 98 -24z"/>
<path d="M1513 10164 c-2 -7 -3 -31 -1 -54 l3 -43 85 1 85 1 0 -124 c0 -69 -4
-125 -8 -125 -5 0 -5 -4 -2 -10 3 -5 7 -48 7 -95 l2 -85 56 0 57 0 -1 203 c-1
111 0 210 3 220 2 11 12 17 25 16 11 0 49 -1 84 0 l62 1 0 50 0 50 -37 1
c-284 5 -416 3 -420 -7z"/>
<path d="M4674 10172 c-21 -3 -21 -8 -22 -160 0 -86 0 -166 -1 -176 -1 -19
-221 304 -221 325 0 5 -31 9 -69 9 l-70 0 0 -270 0 -270 53 0 53 0 -1 176 c0
97 2 178 6 180 4 3 33 -35 64 -83 31 -48 84 -130 118 -180 l61 -93 57 0 57 0
0 118 c1 64 1 126 1 137 0 11 0 79 0 151 l-1 132 -32 3 c-18 2 -42 3 -53 1z"/>
<path d="M5138 10172 l-88 -3 0 -49 0 -50 85 0 c61 0 85 -4 86 -12 0 -7 1
-106 1 -220 l0 -208 58 0 57 0 1 188 c0 103 1 202 1 220 l1 33 53 -1 c123 -4
117 -6 117 50 0 28 -3 50 -7 51 -30 2 -295 3 -365 1z"/>
<path d="M5839 10172 l-36 -3 0 -270 0 -269 182 0 181 0 3 50 2 50 -126 0
c-93 0 -125 3 -126 13 0 6 -1 35 -2 62 l0 50 64 2 c35 1 86 2 112 2 l48 1 -3
48 -3 47 -90 2 c-49 0 -97 2 -106 2 -20 1 -31 35 -16 50 7 7 7 11 1 11 -11 0
-12 35 -2 46 4 3 59 6 122 6 64 0 116 3 117 7 7 49 2 91 -11 92 -63 2 -282 3
-311 1z"/>
<path d="M6519 10172 l-37 -3 2 -85 c0 -46 -2 -84 -6 -84 -4 0 -5 -6 -2 -13 9
-24 10 -157 1 -157 -4 0 -6 -4 -2 -9 3 -6 6 -51 7 -100 l2 -91 51 0 52 0 -1
169 c-1 134 2 167 12 159 6 -6 12 -16 12 -22 0 -6 26 -76 58 -156 l59 -145 49
-3 49 -3 69 176 c38 96 70 175 72 175 2 0 3 -71 3 -157 0 -87 0 -166 0 -175 1
-15 10 -18 51 -18 45 0 50 2 51 23 3 121 1 508 -3 512 -7 7 -126 10 -132 4 -2
-2 -37 -87 -76 -189 -40 -102 -76 -189 -80 -193 -4 -5 -17 17 -29 50 -12 32
-26 67 -31 78 -5 11 -28 70 -51 130 -23 61 -46 114 -50 119 -9 10 -43 13 -100
8z"/>
<path d="M7438 10172 c-18 -2 -28 -9 -29 -20 0 -24 0 -483 0 -504 1 -15 11
-18 56 -18 37 0 55 4 56 13 1 6 2 46 3 87 l1 74 75 3 c148 4 221 65 221 183 0
81 -28 127 -96 159 -37 17 -68 22 -153 24 -59 1 -119 1 -134 -1z m237 -116
c14 -9 25 -20 26 -24 0 -4 2 -17 5 -29 11 -62 -38 -101 -126 -99 l-55 1 -1 80
c0 44 1 83 2 86 7 13 124 1 149 -15z"/>
<path d="M9010 10170 l-56 -5 0 -267 0 -268 58 0 58 0 0 94 c0 82 2 95 18 98
41 9 58 -6 115 -98 l58 -94 70 0 71 0 -46 65 c-25 36 -46 69 -46 72 0 3 -11
20 -24 38 l-24 31 35 20 c75 40 106 138 68 217 -18 39 -49 65 -101 86 -33 13
-167 19 -254 11z m222 -105 c23 -9 40 -57 32 -89 -3 -15 -17 -34 -30 -43 -22
-14 -125 -25 -151 -15 -9 3 -13 29 -13 83 l0 78 73 -3 c39 -2 79 -7 89 -11z"/>
<path d="M9877 10172 c-16 -2 -31 -11 -33 -20 -3 -9 -10 -26 -15 -37 -5 -11
-29 -76 -54 -145 -25 -69 -50 -134 -55 -145 -9 -20 -70 -186 -70 -192 0 -2 26
-3 58 -3 l58 0 17 58 18 57 106 0 107 0 20 -57 21 -58 62 0 63 0 -16 43 c-9
23 -20 51 -24 62 -5 11 -25 65 -45 120 -39 106 -75 202 -103 274 -15 40 -20
44 -52 45 -19 1 -48 0 -63 -2z m103 -314 c11 -20 10 -20 -78 -20 -30 0 -55 2
-57 4 -5 4 16 69 47 147 l22 54 28 -84 c15 -46 32 -92 38 -101z"/>
<path d="M10498 10172 l-28 -3 0 -270 0 -269 58 0 57 0 0 269 0 269 -30 4
c-16 2 -42 2 -57 0z"/>
<path d="M10931 10172 c-8 -3 -12 -49 -12 -160 0 -87 0 -166 0 -177 0 -11 1
-45 1 -76 1 -31 0 -60 -1 -65 -1 -5 -1 -21 0 -36 1 -27 3 -28 54 -28 l53 0 -1
180 c0 99 2 180 6 180 4 0 50 -66 103 -147 52 -82 100 -153 104 -159 5 -5 15
-20 21 -32 10 -19 20 -22 70 -22 l58 0 0 270 0 270 -54 0 -53 0 -1 -42 c-1
-24 0 -47 1 -53 2 -9 2 -227 1 -249 -1 -10 -91 119 -91 130 0 3 -8 14 -18 25
-11 10 -25 32 -33 47 -8 15 -16 29 -20 32 -3 3 -20 29 -39 58 -18 28 -40 52
-49 53 -9 0 -32 2 -52 3 -20 1 -41 0 -48 -2z"/>
<path d="M14773 10172 l-31 -3 1 -270 1 -269 52 0 53 0 0 148 c0 81 0 165 0
187 l1 40 75 -115 c42 -63 97 -148 123 -187 l46 -73 58 0 58 0 0 270 c0 250
-1 270 -17 271 -10 0 -33 1 -50 2 -18 1 -34 -2 -36 -8 -2 -5 -3 -86 -3 -178
l1 -168 -20 24 c-11 14 -64 92 -117 175 -106 162 -106 163 -195 154z"/>
<path d="M15534 10172 c-30 -3 -31 -4 -31 -53 l0 -49 82 0 c71 0 83 -3 87 -17
2 -10 3 -109 3 -220 l-1 -203 58 0 59 0 -1 118 c-1 64 -1 163 -1 220 l1 103
80 -2 c45 -1 83 0 85 2 7 8 9 88 3 95 -7 6 -368 11 -424 6z"/>
<path d="M16339 10172 l-86 -3 1 -269 0 -270 183 0 183 0 0 50 0 50 -125 0
-125 0 0 66 0 66 38 -2 c20 -1 70 -2 110 -1 l72 1 0 49 0 50 -52 0 c-29 1 -60
1 -68 2 -8 0 -29 -1 -47 -4 -47 -6 -55 3 -51 63 l3 53 119 1 118 1 3 48 c2 43
0 47 -21 48 -89 3 -181 4 -255 1z"/>
<path d="M16959 10172 l-26 -3 0 -270 0 -269 52 0 51 0 -1 163 c0 89 1 166 4
171 4 9 69 -144 74 -173 1 -9 4 -18 7 -21 3 -3 17 -34 31 -70 l27 -65 49 -3
49 -3 69 176 c37 96 70 175 71 175 2 0 3 -30 3 -67 0 -38 0 -117 0 -176 l1
-108 52 3 52 3 1 264 c0 299 7 278 -87 273 l-54 -4 -53 -136 c-29 -75 -60
-150 -67 -166 -8 -16 -14 -34 -14 -41 0 -6 -6 -19 -13 -29 -12 -17 -16 -12
-37 45 -13 35 -28 75 -33 89 -6 14 -29 72 -51 130 l-41 105 -45 5 c-25 3 -57
4 -71 2z"/>
<path d="M17868 10169 c-7 -5 -13 -334 -9 -516 1 -21 6 -23 56 -23 30 0 56 3
56 8 1 4 2 41 4 82 1 41 3 77 4 81 0 3 29 6 64 6 81 2 109 7 144 29 73 47 99
112 80 204 -3 14 -6 28 -6 32 -3 22 -58 69 -99 82 -47 16 -274 27 -294 15z
m223 -98 c28 -2 60 -35 65 -68 12 -76 -53 -111 -172 -95 -9 2 -13 118 -5 164
0 4 22 5 49 3 26 -2 54 -4 63 -4z"/>
<path d="M19423 10170 c-17 -5 -18 -23 -18 -272 l0 -268 57 0 c56 0 58 1 59
28 1 49 1 117 -1 127 -6 28 2 35 38 35 36 -1 39 -3 96 -95 l58 -95 69 0 69 0
-38 58 c-20 31 -52 78 -70 104 -30 43 -31 47 -13 53 58 18 113 104 105 164 -8
54 -11 61 -37 94 -44 56 -88 66 -289 71 -37 0 -75 -1 -85 -4z m249 -104 c46
-13 60 -85 23 -126 -17 -18 -14 -18 -102 -23 -70 -4 -76 1 -71 65 1 19 -1 38
-4 43 -3 6 -2 19 2 31 7 19 16 21 67 19 32 -1 70 -5 85 -9z"/>
<path d="M20304 10162 c-8 -7 -14 -15 -14 -16 0 -4 -161 -438 -185 -498 -6
-16 0 -18 52 -18 l59 0 19 55 c10 30 21 56 24 56 26 6 189 4 202 -3 9 -4 20
-23 23 -41 11 -58 26 -71 86 -68 61 2 67 5 52 24 -7 7 -13 22 -15 33 -2 10 -8
28 -12 39 -4 11 -20 54 -36 95 -89 239 -129 343 -131 346 -2 1 -28 4 -57 7
-36 2 -58 -1 -67 -11z m96 -227 c10 -25 30 -86 30 -94 0 -7 -128 -7 -135 1 -4
3 33 116 61 188 4 10 11 -1 20 -30 8 -25 19 -54 24 -65z"/>
<path d="M20928 10169 c-5 -3 -9 -35 -9 -70 1 -35 1 -71 1 -79 -1 -8 -1 -44
-1 -80 1 -36 1 -74 1 -85 0 -11 0 -59 0 -106 1 -47 0 -92 -2 -100 -2 -11 12
-15 58 -17 l60 -3 -1 87 c-1 57 3 91 11 99 18 18 63 7 76 -19 6 -11 14 -23 18
-26 3 -3 23 -33 44 -67 20 -35 42 -66 48 -69 11 -7 119 -6 126 0 3 4 -26 55
-38 66 -3 3 -17 23 -31 45 -14 22 -33 52 -43 67 l-17 26 39 22 c123 69 100
251 -37 297 -42 14 -284 24 -303 12z m272 -104 c42 -26 40 -111 -4 -134 -30
-17 -144 -21 -154 -7 -7 9 -9 105 -3 145 1 10 145 6 161 -4z"/>
<path d="M21633 10172 c-18 -2 -33 -5 -33 -8 0 -2 11 -22 25 -44 14 -22 25
-44 25 -50 0 -5 3 -10 8 -10 4 0 15 -17 25 -37 9 -21 29 -58 43 -83 65 -110
63 -104 62 -207 l-2 -98 59 0 58 0 2 105 2 105 92 159 c51 87 88 162 83 165
-6 3 -32 5 -59 3 -47 -4 -49 -5 -73 -55 -14 -28 -36 -66 -48 -86 -13 -19 -28
-45 -33 -58 -5 -13 -12 -23 -17 -23 -8 0 -42 57 -90 150 -34 66 -58 80 -129
72z"/>
<path d="M22945 10172 l-40 -3 -78 -212 c-43 -117 -83 -221 -87 -232 -5 -11
-16 -37 -24 -57 l-15 -38 58 0 59 0 16 40 c9 22 16 47 16 55 0 18 -1 18 122
19 l98 1 10 -27 c35 -96 27 -88 91 -88 33 0 59 3 59 7 0 7 -114 317 -171 463
-31 81 -27 79 -114 72z m60 -236 c18 -53 33 -96 32 -97 -1 0 -32 -1 -70 -2
-63 -2 -67 -1 -67 21 0 12 4 22 8 22 5 0 9 6 9 13 0 19 45 149 49 144 3 -3 20
-48 39 -101z"/>
<path d="M23529 10170 c-5 -26 -3 -519 2 -530 5 -11 20 -14 58 -12 57 4 52 -7
52 120 l0 72 40 0 c29 0 41 -5 46 -17 7 -18 73 -124 84 -133 3 -3 8 -13 12
-22 5 -15 19 -18 78 -18 56 0 69 3 62 13 -20 26 -123 185 -123 190 0 2 18 16
40 31 66 44 91 122 62 196 -34 87 -91 109 -280 113 -73 1 -132 0 -133 -3z
m247 -99 c61 -3 84 -95 33 -133 -19 -15 -44 -20 -95 -21 l-69 -2 -2 70 c-1 39
0 75 2 81 3 10 34 11 131 5z"/>
<path d="M24259 10172 l-47 -3 3 -42 c2 -23 4 -46 4 -52 1 -6 36 -10 83 -10
l83 0 1 -205 c1 -113 2 -211 3 -217 1 -9 19 -13 56 -13 37 0 55 4 56 13 0 6 1
105 1 218 l1 206 79 1 c44 1 83 4 86 7 3 3 6 26 7 50 l0 45 -40 1 c-242 3
-337 4 -376 1z"/>
</g>
</svg>
